<?xml version="1.0" encoding="UTF-8" standalone="no"?>
<svg
   class="w-5 h-5"
   viewBox="0 0 16 16"
   fill="#eb00f2"
   version="1.1"
   id="svg866"
   sodipodi:docname="HeartIcon - Inkscape.svg"
   width="16"
   height="16"
   inkscape:version="1.1.1 (c3084ef, 2021-09-22)"
   inkscape:export-filename="/Users/bensthoughts/Programming/Web/shareable-love-forms/images/logo/HeartIcon - Optimized.png"
   inkscape:export-xdpi="96"
   inkscape:export-ydpi="96"
   xmlns:inkscape="http://www.inkscape.org/namespaces/inkscape"
   xmlns:sodipodi="http://sodipodi.sourceforge.net/DTD/sodipodi-0.dtd"
   xmlns="http://www.w3.org/2000/svg"
   xmlns:svg="http://www.w3.org/2000/svg">
  <defs
     id="defs870" />
  <sodipodi:namedview
     id="namedview868"
     pagecolor="#ffffff"
     bordercolor="#666666"
     borderopacity="1.0"
     inkscape:pageshadow="2"
     inkscape:pageopacity="0"
     inkscape:pagecheckerboard="true"
     showgrid="false"
     inkscape:zoom="27.25"
     inkscape:cx="8.0917431"
     inkscape:cy="10.073394"
     inkscape:window-width="1440"
     inkscape:window-height="785"
     inkscape:window-x="0"
     inkscape:window-y="55"
     inkscape:window-maximized="0"
     inkscape:current-layer="svg866" />
  <path
     fill-rule="evenodd"
     d="m 1.2198081,2.5152124 a 3.9752798,3.9752798 0 0 1 5.6210458,0 l 1.164757,1.163763 1.164757,-1.163763 a 3.9752798,3.9752798 0 1 1 5.6210461,5.621046 L 8.0056109,14.923054 1.2198081,8.1362584 a 3.9752798,3.9752798 0 0 1 0,-5.621046 z"
     clip-rule="evenodd"
     id="path864"
     style="stroke-width:0.99382" />
  <path
     fill-rule="evenodd"
     d="m 2.4422832,3.8167234 a 3.2624543,3.2624543 0 0 1 4.61311,0 l 0.9558994,0.955083 0.9558993,-0.955083 a 3.2624543,3.2624543 0 1 1 4.6131111,4.61311 L 8.0112926,13.999658 2.4422832,8.4298334 a 3.2624543,3.2624543 0 0 1 0,-4.61311 z"
     clip-rule="evenodd"
     id="path864-5"
     style="fill:#000000;stroke-width:0.815614" />
</svg>
