<?xml version="1.0" encoding="UTF-8" standalone="no"?>
<svg
   enable-background="new 0 0 864 864"
   version="1.1"
   viewBox="0 0 1200 630.00003"
   xml:space="preserve"
   id="svg10"
   sodipodi:docname="Logo - OpenGraph - Inkscape.svg"
   width="1200"
   height="630"
   inkscape:version="1.1.1 (c3084ef, 2021-09-22)"
   inkscape:label="sharable love forms"
   xmlns:inkscape="http://www.inkscape.org/namespaces/inkscape"
   xmlns:sodipodi="http://sodipodi.sourceforge.net/DTD/sodipodi-0.dtd"
   xmlns:xlink="http://www.w3.org/1999/xlink"
   xmlns="http://www.w3.org/2000/svg"
   xmlns:svg="http://www.w3.org/2000/svg"><defs
   id="defs14"><linearGradient
     inkscape:collect="always"
     id="linearGradient97508"><stop
       style="stop-color:#eb00f2;stop-opacity:1"
       offset="0"
       id="stop97504" /><stop
       style="stop-color:#8300f2;stop-opacity:1"
       offset="1"
       id="stop97506" /></linearGradient><rect
     x="867.9325"
     y="25.885706"
     width="475.07883"
     height="366.96796"
     id="rect5151" /><linearGradient
     inkscape:collect="always"
     xlink:href="#linearGradient97508"
     id="linearGradient17796"
     x1="17.499363"
     y1="431.99835"
     x2="846.49738"
     y2="431.99835"
     gradientUnits="userSpaceOnUse" /></defs><sodipodi:namedview
   id="namedview12"
   pagecolor="#000000"
   bordercolor="#666666"
   borderopacity="1.0"
   inkscape:pageshadow="2"
   inkscape:pageopacity="1"
   inkscape:pagecheckerboard="0"
   showgrid="false"
   fit-margin-top="0"
   fit-margin-left="0"
   fit-margin-right="0"
   fit-margin-bottom="0"
   inkscape:zoom="0.26836435"
   inkscape:cx="542.17335"
   inkscape:cy="258.97627"
   inkscape:window-width="1296"
   inkscape:window-height="785"
   inkscape:window-x="0"
   inkscape:window-y="25"
   inkscape:window-maximized="0"
   inkscape:current-layer="svg10"
   width="562.95746px"
   height="425px" />


<g
   id="g865"
   transform="matrix(1.3133618,0,0,1.3133618,229.87973,41.692528)"><g
     aria-label="Shareable"
     transform="rotate(-42.529133,-22.326374,26.682644)"
     id="text5169"
     style="font-size:180.168px;line-height:1.25;font-family:'Better Grade';-inkscape-font-specification:'Better Grade';fill:#eb00f2;stroke-width:1.87675"
     inkscape:label="Shareable"><path
       d="m -135.72259,278.25787 q -5.98214,-0.26392 -7.65362,-2.72715 -3.16702,-3.60688 -0.87973,-9.50105 2.37526,-6.24606 11.61239,-13.28387 9.3251,-7.12579 25.77599,-10.99658 -2.9031,-6.94984 -9.94091,-15.57116 -5.19039,-6.50998 -9.85294,-13.89968 -4.57458,-7.47768 -6.07011,-15.57116 -1.40756,-8.18146 2.81512,-16.80278 7.56565,-14.1636 21.20141,-22.87289 12.492121,-7.65362 24.192484,-7.65362 11.436446,0.26391 15.483188,8.18145 2.639179,4.48661 0.615808,13.81171 -1.935398,9.3251 -13.547789,25.07221 -0.439863,0.61581 -1.143644,0.70378 -0.703781,0.088 -1.31959,-0.35189 -0.527836,-0.52784 -0.703781,-1.14365 -0.08797,-0.70378 0.35189,-1.31959 7.741594,-10.38077 10.732664,-17.41858 2.991071,-7.03781 2.991071,-11.34847 0.08797,-4.31066 -1.143645,-6.42201 -3.079043,-6.07011 -12.404144,-6.24606 -0.175946,0 -0.351891,0 -6.509977,0 -14.427516,3.25499 -7.829565,3.25499 -15.131295,9.67699 -7.21376,6.33403 -12.2282,15.74711 -3.78282,7.65362 -2.37526,14.95535 1.40756,7.30173 5.71822,14.25157 4.31066,6.86187 9.41307,13.28387 3.60688,4.66255 6.42201,8.88524 2.9031,4.22269 4.13471,8.09348 5.19039,-0.96769 10.996585,-1.31959 0.703781,-0.088 1.231617,0.43987 0.527836,0.43986 0.615809,1.14364 0,0.79176 -0.439863,1.31959 -0.439864,0.52784 -1.231617,0.61581 -5.63025,0.35189 -10.468751,1.23162 1.40757,11.52442 -6.422,20.76154 -7.12578,8.09349 -18.03439,11.6124 -5.19039,1.40756 -8.53335,1.40756 z m 29.55881,-33.07772 q -13.28387,3.25499 -19.88182,7.47767 -11.52442,6.7739 -14.95535,14.69144 -0.52784,1.14364 -0.70378,2.81512 -0.17595,1.67148 0.87972,2.99107 3.16702,2.99107 12.66807,0.26392 9.3251,-2.81512 16.01102,-10.11685 6.77389,-7.30173 5.98214,-18.12237 z"
       id="path10909" /><path
       d="m -84.08264,246.76366 q -0.439863,0 -0.791753,-0.17595 -0.703782,-0.26392 -0.879727,-0.87973 -0.263918,-0.70378 0,-1.31958 0.175945,-0.52784 3.342961,-7.7416 3.079043,-7.21376 7.741594,-17.85845 4.66255,-10.64469 9.325101,-21.37735 4.662551,-10.73267 8.005512,-18.12237 6.94984,-15.39521 12.844008,-16.01102 2.023371,-0.088 3.167015,1.67148 2.991071,6.50997 -6.685922,22.60897 -2.99107,4.57458 -8.093484,11.61239 -5.014441,6.94984 -9.501047,12.93198 -4.398633,5.89417 -5.454304,7.30173 -1.583508,3.51891 -2.991071,6.7739 5.014442,-6.94984 9.58902,-10.90861 1.231617,-0.9677 2.727152,-1.58351 1.495535,-0.70378 2.99107,0 1.847426,1.05567 2.023371,3.95877 0.175946,2.81512 -0.263918,6.94984 -0.175945,1.84742 -0.35189,4.13471 -0.08797,2.28729 0.08797,4.13472 0.175945,1.84742 0.967699,2.37526 0.08797,0 0.35189,0.088 0.351891,0 1.055672,-0.17594 0.703781,-0.17595 1.759453,-0.70378 1.143645,-0.61581 2.815125,-1.75946 3.606879,-2.63918 6.59795,-5.4543 2.99107,-2.9031 4.838496,-4.92647 1.847425,-2.02337 1.935398,-2.11135 0.527836,-0.6158 1.231617,-0.6158 0.703781,-0.088 1.231617,0.35189 0.615809,0.52783 0.615809,1.23161 0.08797,0.70379 -0.351891,1.23162 -0.175945,0.26392 -2.111343,2.37526 -1.935399,2.11135 -5.102414,5.10242 -3.079043,2.90309 -6.861868,5.63025 -2.111343,1.67148 -4.838496,2.81512 -2.639179,1.05567 -4.926468,-0.088 -2.463235,-1.58351 -2.727153,-5.45431 -0.263918,-3.95876 0.263918,-8.53334 0.175946,-2.02337 0.263918,-4.13472 0.08797,-2.19931 -0.175945,-3.25499 -0.351891,0.088 -1.847426,1.23162 -3.079043,2.55121 -6.597949,7.03781 -3.430934,4.48661 -6.509977,9.23713 -3.167015,4.66255 -5.102414,8.00551 -2.023371,3.34296 -2.111343,3.51891 -0.615809,0.87973 -1.495536,0.87973 z m 39.675668,-80.05512 q -0.703781,-0.088 -3.342961,2.81512 -2.551207,2.81513 -6.422004,11.17253 -4.398632,9.94091 -10.820636,24.72032 3.958769,-5.36633 7.829566,-10.73267 3.870797,-5.4543 6.158086,-9.06118 5.278359,-8.70929 6.246059,-13.37184 1.055672,-4.75053 0.35189,-5.54228 z"
       id="path10911" /><path
       d="m -40.800092,242.27705 q -0.879726,0 -1.583508,-0.26392 -0.703781,-0.26391 -1.495535,-1.31959 -0.791754,-1.14364 -0.791754,-3.5189 0.351891,-5.54228 4.750524,-12.58009 4.31066,-7.12579 10.292801,-9.58902 2.023371,-0.79176 4.66255,-0.35189 2.63918,0.35189 5.454305,3.34296 1.759453,-2.28729 2.815125,-3.78283 1.055672,-1.49553 1.143644,-1.49553 0.351891,-0.61581 0.9677,-0.70378 0.703781,-0.17595 1.31959,0.17594 0.615808,0.35189 0.791753,0.9677 0.175946,0.61581 -0.08797,1.23162 -3.95877,9.58902 -4.222688,14.42752 -0.175945,4.83849 1.671481,5.80619 2.639179,1.49554 8.7092927,-2.19932 6.15808589,-3.78282 13.3718437,-12.49211 0.4398633,-0.61581 1.1436445,-0.70378 0.7037813,-0.088 1.3195898,0.43986 0.527836,0.43986 0.6158083,1.14364 0.08797,0.70378 -0.3518903,1.31959 -13.283871,15.92305 -23.1368087,16.45089 -2.023371,0 -3.518906,-0.9677 -2.023371,-0.9677 -2.99107,-4.22269 -0.9677,-3.25499 0.527836,-9.76496 -4.398633,5.63025 -9.325102,10.73266 -8.005512,8.00551 -12.052254,7.91754 z m -0.08797,-3.5189 q 0,0 0,0 0,0 0.35189,0 0.263918,0 0.967699,-0.26392 0.703782,-0.35189 1.847426,-1.05567 1.055672,-0.70379 2.63918,-2.02338 1.583508,-1.40756 3.782824,-3.60687 5.102414,-5.19039 9.58902,-10.99659 -0.175946,-0.17594 -0.351891,-0.35189 -2.551207,-2.99107 -5.63025,-2.37526 -3.95877,1.05567 -7.565648,5.89417 -3.606879,4.75052 -5.27836,10.02888 -0.703781,2.46324 -0.615808,3.60688 0.08797,1.05567 0.263918,1.14365 0,0 0,0 z"
       id="path10913" /><path
       d="m 9.8721507,212.63027 0.2639183,-0.52784 q 0.35189,-0.52784 0.879726,-0.79175 0.615809,-0.26392 1.31959,0 0.703781,0.26391 0.967699,0.87972 0.263918,0.43987 0.175946,0.9677 v 0.17595 q -0.08797,0.088 -0.08797,0.17594 l -4.3106602,11.17253 q 2.8151252,-4.31066 4.6625512,-6.50998 1.847425,-2.28729 2.99107,-3.07904 1.231617,-0.79175 2.111344,-0.70378 1.495535,-0.088 2.375261,1.23162 l 0.08797,0.17594 q 2.375262,3.8708 4.222687,5.63025 1.935399,1.75946 4.750524,1.05567 3.518906,-1.05567 4.838496,-1.67148 1.407562,-0.61581 1.407562,-0.61581 1.583508,-0.70378 2.199317,0.79176 0.703781,1.40756 -0.08797,2.02337 -0.175945,0.17595 -1.847426,0.9677 -1.583507,0.70378 -5.542277,1.84742 -1.407562,0.43987 -2.63918,0.43987 -3.430933,-0.17595 -5.806195,-2.55121 -2.287289,-2.46323 -4.134715,-5.63025 -0.703781,0.35189 -3.079043,3.43093 -2.375261,3.07905 -7.1257847,10.99659 -3.1670157,5.54227 -5.3663321,9.76496 -2.28728901,4.22269 -2.37526166,4.48661 -0.6158086,0.9677 -1.58350781,0.9677 -0.35189063,0 -0.70378123,-0.17595 -0.7037813,-0.26392 -0.9676992,-0.87973 -0.263918,-0.70378 0,-1.31959 z"
       id="path10915" /><path
       d="m 41.454337,241.92516 q -7.301731,-0.088 -8.797266,-7.03781 -0.967699,-5.71822 2.375262,-12.31617 3.606879,-6.86187 9.061183,-8.7093 2.63918,-0.79175 4.310661,0.17595 1.67148,0.87973 2.199316,2.55121 0.703781,2.28728 -0.439863,4.75052 -1.055672,2.46323 -3.782824,3.51891 -1.495536,0.43986 -3.167016,0.26391 -1.583508,-0.17594 -2.99107,-0.52783 -1.31959,-0.43987 -1.935399,-0.70378 -2.903097,5.54227 -2.199316,10.38077 0.879726,4.48661 5.98214,4.13471 11.788336,-0.70378 24.016535,-18.12236 0.527836,-0.61581 1.143645,-0.70378 0.703781,-0.17595 1.31959,0.26391 0.615808,0.43987 0.703781,1.14365 0.175945,0.70378 -0.263918,1.31959 -4.222687,6.422 -10.908609,12.58009 -6.685922,6.07011 -15.747106,7.03781 -0.439863,0 -0.879726,0 z m -1.143645,-21.11344 q 1.231617,0.43987 2.63918,0.70378 1.407562,0.17595 2.287289,0 1.31959,-0.52783 1.847426,-1.67148 0.527836,-1.23161 0.175945,-2.11134 0,-0.17594 -0.175945,-0.35189 -0.175946,-0.26392 -0.615809,-0.35189 -0.439863,-0.088 -1.31959,0.17594 -2.727152,0.9677 -4.838496,3.60688 z"
       id="path10917" /><path
       d="m 61.951968,242.27705 q -0.879726,0 -1.583508,-0.26392 -0.703781,-0.26391 -1.495535,-1.31959 -0.791754,-1.14364 -0.791754,-3.5189 0.351891,-5.54228 4.750524,-12.58009 4.31066,-7.12579 10.2928,-9.58902 2.023372,-0.79176 4.662551,-0.35189 2.63918,0.35189 5.454305,3.34296 1.759453,-2.28729 2.815125,-3.78283 1.055672,-1.49553 1.143644,-1.49553 0.351891,-0.61581 0.9677,-0.70378 0.703781,-0.17595 1.319589,0.17594 0.615809,0.35189 0.791754,0.9677 0.175946,0.61581 -0.08797,1.23162 -3.95877,9.58902 -4.222688,14.42752 -0.175945,4.83849 1.671481,5.80619 2.639179,1.49554 8.709293,-2.19932 6.158081,-3.78282 13.371841,-12.49211 0.43986,-0.61581 1.14364,-0.70378 0.70379,-0.088 1.31959,0.43986 0.52784,0.43986 0.61581,1.14364 0.088,0.70378 -0.35189,1.31959 -13.283866,15.92305 -23.136804,16.45089 -2.023371,0 -3.518906,-0.9677 -2.023371,-0.9677 -2.99107,-4.22269 -0.9677,-3.25499 0.527836,-9.76496 -4.398633,5.63025 -9.325102,10.73266 -8.005512,8.00551 -12.052254,7.91754 z m -0.08797,-3.5189 q 0,0 0,0 0,0 0.35189,0 0.263918,0 0.967699,-0.26392 0.703782,-0.35189 1.847426,-1.05567 1.055672,-0.70379 2.63918,-2.02338 1.583508,-1.40756 3.782824,-3.60687 5.102414,-5.19039 9.589019,-10.99659 -0.175945,-0.17594 -0.35189,-0.35189 -2.551207,-2.99107 -5.63025,-2.37526 -3.95877,1.05567 -7.565649,5.89417 -3.606878,4.75052 -5.278359,10.02888 -0.703781,2.46324 -0.615808,3.60688 0.08797,1.05567 0.263918,1.14365 0,0 0,0 z"
       id="path10919" /><path
       d="m 102.59534,244.47637 q -0.43986,0 -0.79175,-0.17595 -0.61581,-0.35189 -0.87973,-0.9677 -0.26392,-0.61581 0,-1.31959 0.43987,-0.9677 3.43094,-8.00551 2.90309,-7.12578 7.3897,-17.59453 0,0 0,-0.088 5.98214,-13.98765 12.31617,-28.06328 6.422,-14.07562 10.73266,-21.90519 4.22269,-7.56565 7.12579,-7.12579 0.43986,0 1.14364,0.43987 0.79176,0.35189 1.31959,1.58351 1.67148,5.19038 -1.67148,12.93198 -3.25498,7.74159 -7.82956,14.86737 -6.15809,9.50105 -12.40415,18.29832 -6.15808,8.70929 -7.56565,10.55672 -1.05567,2.46323 -2.02337,4.75052 2.72716,-3.60688 5.10242,-5.71822 3.5189,-2.9031 5.89417,-3.34296 2.46323,-0.52784 3.87079,0.088 3.16702,1.31959 3.60688,5.71822 0.43986,4.66255 -2.46323,10.2928 -2.9031,5.54228 -9.06119,9.76497 -4.22268,2.37526 -8.00551,1.67148 -3.78282,-0.70378 -5.4543,-1.75946 -2.11135,3.8708 -2.28729,4.13472 -0.61581,0.9677 -1.49554,0.9677 z m 5.54228,-8.09349 q 1.31959,0.70378 4.04674,1.23162 2.81513,0.52784 5.71823,-1.05567 5.27835,-3.69485 7.74159,-8.3574 2.55121,-4.75053 2.19932,-8.44538 0,-0.52783 -0.3519,-1.40756 -0.26391,-0.9677 -1.05567,-1.40756 -2.11134,-0.70378 -6.15808,2.63918 -2.81513,2.5512 -6.15809,7.3897 -3.25499,4.75052 -5.98214,9.41307 z m 33.16569,-73.28122 q -0.87973,0.61581 -3.43093,5.01444 -6.42201,11.87631 -16.18697,34.22137 5.27836,-7.47768 10.20483,-15.21927 10.73266,-17.0667 9.41307,-24.01654 z"
       id="path10921" /><path
       d="m 134.35347,262.77468 q -0.61581,0 -1.14365,-0.43986 -0.43986,-0.26392 -0.9677,-1.05567 -0.52783,-0.87973 -0.79175,-2.81513 -0.35189,-2.02337 0,-5.71822 0.35189,-3.69485 1.75945,-9.67699 2.11135,-8.7093 5.89417,-19.52993 l 1.58351,-4.31066 q 2.02337,-5.36634 4.39863,-10.90861 7.03781,-16.80278 11.52442,-25.51207 4.57458,-8.7093 7.21376,-11.87631 2.63918,-3.16702 4.22268,-3.51891 1.31959,-0.43986 2.11135,-0.088 0.79175,0.35189 1.05567,0.70378 1.84743,1.75945 -0.87973,8.79727 -2.02337,5.27835 -6.07011,13.28387 -3.95877,7.47767 -10.2928,16.62683 -6.33403,9.14915 -10.11686,14.1636 -4.83849,12.844 -7.21375,23.04883 -0.70379,2.9031 -1.05568,5.19039 -0.43986,2.19931 -0.6158,3.8708 -0.17595,1.67148 -0.17595,2.90309 0,1.14365 0.088,1.9354 0.088,0.70378 0.26392,1.14365 0.088,0.35189 0.17595,0.52783 0.088,0.088 0.17594,0.088 0.52784,0.52784 0.61581,1.23162 0,0.70378 -0.43986,1.31959 -0.61581,0.61581 -1.31959,0.61581 z m 34.04541,-91.57953 q -0.87972,0.6158 -2.46323,2.81512 -1.58351,2.11134 -4.13471,6.59795 -5.10242,9.23713 -12.49212,26.56774 7.30173,-10.2928 11.87631,-18.6502 7.03781,-14.42752 7.21375,-17.33061 z"
       id="path10923" /><path
       d="m 158.9858,241.92516 q -7.30173,-0.088 -8.79727,-7.03781 -0.96769,-5.71822 2.37527,-12.31617 3.60688,-6.86187 9.06118,-8.7093 2.63918,-0.79175 4.31066,0.17595 1.67148,0.87973 2.19932,2.55121 0.70378,2.28728 -0.43987,4.75052 -1.05567,2.46323 -3.78282,3.51891 -1.49554,0.43986 -3.16702,0.26391 -1.5835,-0.17594 -2.99107,-0.52783 -1.31959,-0.43987 -1.9354,-0.70378 -2.90309,5.54227 -2.19931,10.38077 0.87972,4.48661 5.98214,4.13471 11.78833,-0.70378 24.01653,-18.12236 0.52784,-0.61581 1.14365,-0.70378 0.70378,-0.17595 1.31959,0.26391 0.61581,0.43987 0.70378,1.14365 0.17594,0.70378 -0.26392,1.31959 -4.22269,6.422 -10.90861,12.58009 -6.68592,6.07011 -15.7471,7.03781 -0.43987,0 -0.87973,0 z m -1.14364,-21.11344 q 1.23161,0.43987 2.63918,0.70378 1.40756,0.17595 2.28728,0 1.31959,-0.52783 1.84743,-1.67148 0.52784,-1.23161 0.17595,-2.11134 0,-0.17594 -0.17595,-0.35189 -0.17594,-0.26392 -0.61581,-0.35189 -0.43986,-0.088 -1.31959,0.17594 -2.72715,0.9677 -4.83849,3.60688 z"
       id="path10925" /></g><g
     transform="matrix(0.50024186,0,0,0.50024186,120.40686,27.503762)"
     fill="none"
     stroke="#000000"
     id="g8"
     style="display:inline;stroke:#ffffff;stroke-width:1.99903;stroke-miterlimit:4;stroke-dasharray:none;stroke-opacity:1"
     inkscape:label="love">
	<path
   style="fill:none;fill-opacity:1;stroke:#ffffff;stroke-width:1.99903;stroke-miterlimit:4;stroke-dasharray:none;stroke-opacity:1"
   d="m 657.35938,500.39453 c 0.32857,0.25287 0.6613,0.5003 0.99804,0.74219 l -0.55469,-0.2461 c 7.08997,4.69787 -14.11924,8.37252 -18.6289,10.06055 -30.68426,13.44217 -16.05487,2.98158 -6.04883,-17.24805 0.20794,-0.42523 0.40784,-0.85434 0.59961,-1.2871 8.45005,-30.28948 10.91543,-6.79783 23.63477,7.97851 z"
   id="path115699" /><path
   style="fill:none;fill-opacity:1;stroke:#ffffff;stroke-width:1.99903;stroke-miterlimit:4;stroke-dasharray:none;stroke-opacity:1"
   d="m 272.07422,190.66992 c -8.5233,0.45623 -16.65096,3.131 -19.25391,3.9336 -1.00316,0.30943 -1.99296,0.66064 -2.96679,1.05273 -21.0515,8.47343 -34.24475,22.97731 -43.49805,33.41992 -0.144,0.16283 -0.28658,0.3269 -0.42774,0.49219 -13.85631,16.19378 -23.62775,33.09756 -32.15429,48.41211 -0.0373,0.0663 -0.0744,0.1327 -0.11133,0.19922 -11.36316,20.70267 -20.49516,41.53621 -28.9707,61.65429 -0.0196,0.0455 -0.0392,0.0911 -0.0586,0.13672 -4.17062,10.00942 -7.96991,20.03122 -11.63086,30.04492 -6.87402,4.22682 -13.80538,8.23374 -20.85742,11.72266 -2.78333,1.29619 -5.15631,2.43608 -6.8125,3.16211 -9.175961,4.02117 -18.207239,6.86984 -26.89453,8.36523 -8.00907,1.08281 -13.343668,1.22359 -16.185547,0.7793 -0.14358,-0.0425 -0.316994,-0.0829 -0.410156,-0.11328 -0.025,-0.0209 -0.07485,-0.0571 -0.105469,-0.082 -9.076588,-7.6186 -21.695884,-12.57814 -33.708984,-12.22461 -13.391983,0.39411 -24.9425571,6.13381 -33.246094,14.4375 -8.303537,8.30369 -14.043604,19.85415 -14.4375,33.24609 -0.393896,13.39195 5.786511,27.57721 14.9277344,36.71875 0.192586,0.19286 0.387259,0.38363 0.5839844,0.57227 4.37654049,4.19083 8.2913345,6.9795 11.1503906,9 0.3474794,0.24552 0.6990923,0.48514 1.0546875,0.71875 8.3873581,5.51111 17.5206191,9.62143 27.0898441,12.27344 3.229979,0.89517 5.237065,1.27943 5.945312,1.44922 0.56932,0.13637 1.141741,0.25945 1.716797,0.36914 14.647663,2.79661 28.629405,2.6339 41.410156,1.23242 l -0.002,0.002 c 3.703295,-0.40586 6.403773,-0.85548 8.132813,-1.08594 0.358162,-0.0476 0.71562,-0.10033 1.072265,-0.1582 1.721515,-0.28008 3.382854,-0.68859 5.083985,-1.01367 -0.03658,0.17459 -0.08461,0.35082 -0.121094,0.52539 -0.03846,0.18201 -0.07557,0.36431 -0.111328,0.54687 -3.682559,19.02612 -6.794797,38.95276 -7.958985,59.77344 -0.232212,4.15211 -0.2873,7.59063 -0.386718,10.30664 -0.0091,0.25383 -0.01559,0.50775 -0.01953,0.76172 -0.2084,12.72514 0.407598,26.4943 3.322266,40.91602 1.462024,7.23568 2.944401,11.72318 4.576172,16.91797 0.228164,0.72616 0.478279,1.44524 0.75,2.15625 4.224618,11.05763 11.168078,28.55783 30.287108,41.26562 l 0.01,0.008 c 9.02226,5.68956 18.56625,8.97453 26.42578,10.16602 0.003,4.1e-4 0.003,0.002 0.006,0.002 19.40114,2.8533 34.59393,-3.15307 45.14844,-8.3457 3.75615,-1.84803 5.97168,-3.22021 6.85938,-3.70508 0.39725,-0.2175 0.79054,-0.44215 1.17968,-0.67383 16.69605,-9.91707 28.7407,-22.02802 38.75782,-32.63476 2.24878,4.18803 4.76355,8.3668 7.94726,12.43945 2.46682,3.15574 3.95967,4.64272 4.07617,4.77734 0.54833,0.63405 1.11765,1.24963 1.70703,1.84571 7.8959,7.98031 19.0924,15.88743 33.66016,19.17578 l 0.0195,0.004 c 6.93848,1.56242 15.69181,1.51349 18.23828,1.45508 1.21899,-0.0275 2.43592,-0.11423 3.64649,-0.25976 15.85088,-1.9108 29.32226,-8.90314 39.58398,-17.22461 1.68054,-1.33389 3.26691,-2.77784 4.83599,-4.23832 0.37592,-0.33308 0.74513,-0.67365 1.10742,-1.02149 8.43434,-8.09585 14.32154,-16.55111 19.03125,-24.41797 3.33709,6.21237 8.01287,12.94019 15.51953,19.19727 l 0.004,0.004 c 4.25116,3.54243 4.31931,3.28093 5.92578,4.31835 5.39241,3.5543 10.92604,5.75179 14.05469,6.76954 0.0299,0.01 0.0599,0.0196 0.0898,0.0293 15.95153,5.11011 31.60045,2.57557 43.63867,-2.74609 h 0.002 c 3.19059,-1.34918 5.63344,-2.82608 8.11328,-4.26367 16.57127,-10.16697 25.04058,-23.87042 30.60351,-33.07618 0.15666,-0.26001 0.31017,-0.52191 0.4605,-0.78563 0.77993,-1.36401 1.33174,-2.6607 2.0625,-4.01367 l 0.33789,0.50976 0.002,0.004 c 2.65678,3.46148 4.24352,5.00926 4.26758,5.03711 0.58397,0.67568 1.19178,1.3304 1.82227,1.96289 10.36308,10.4011 23.53598,17.43221 37.26758,20.60547 3.92335,0.9088 6.03128,1.13041 6.13085,1.14844 0.56688,0.10288 1.13604,0.19275 1.70704,0.26953 18.33907,2.45671 33.23241,-1.31081 44.0039,-4.08203 0.30112,-0.077 0.60127,-0.15775 0.90039,-0.24219 13.85651,-3.93254 26.05564,-8.76434 37.06446,-12.97071 l 0.0644,-0.0254 c 12.89602,-4.95474 25.61143,-9.84796 38.21484,-14.49218 0.0815,-0.0303 0.16287,-0.0609 0.24414,-0.0918 12.13853,-4.56855 24.97152,-8.39291 38.36328,-11.82422 12.80824,-3.22098 26.09437,-5.5611 39.74805,-7.24414 7.71307,-0.84331 15.24478,-1.17404 22.50391,-0.89648 l 0.01,0.002 c 4.72047,0.17913 5.44735,0.33491 10.67383,0.85156 8.23293,1.02825 15.45686,2.58956 21.33789,4.77344 5.4e-4,2e-4 10e-4,-2e-4 0.002,0 0.15254,0.0573 1.52211,0.6314 2.9375,1.2168 1.32264,0.61696 2.64461,1.23269 3.96289,1.84765 0.0299,0.0137 0.0598,0.0274 0.0898,0.041 11.73063,5.43463 27.17749,6.35333 39.61523,1.37109 12.43775,-4.98224 21.30448,-14.34877 26.24024,-25.0039 4.93576,-10.65514 6.34729,-23.47511 2.10547,-36.1836 -4.24183,-12.70849 -14.92924,-23.89759 -26.66016,-29.33203 -0.0306,-0.007 2.99861,1.51985 -0.0918,-0.0215 -1.9248,-0.95292 -4.0557,-1.88785 -5.76169,-2.67186 -0.57499,-0.26461 -1.15655,-0.51469 -1.74414,-0.75 -1.39044,-0.55668 -3.81718,-1.63473 -7.38868,-2.93945 -3.33418,-1.21793 -6.6564,-2.26443 -9.96875,-3.24024 2.05559,-2.66956 3.97444,-5.03177 6.09766,-7.95898 0.0536,-0.0734 0.10704,-0.14694 0.16016,-0.2207 3.69183,-5.16829 7.51423,-10.77397 11.20507,-16.9629 0.0663,-0.11099 0.13209,-0.22232 0.19727,-0.33398 3.01587,-5.17756 6.82088,-11.89902 9.82422,-20.74023 0.0729,-0.21355 0.14385,-0.42775 0.21289,-0.64258 1.89627,-5.92987 4.04069,-13.58812 4.57226,-23.06836 0.0201,-0.35784 0.035,-0.71595 0.0449,-1.07422 0.22132,-8.05388 -0.42041,-18.36505 -4.66407,-29.38086 -0.0627,-0.1619 -0.12648,-0.32336 -0.1914,-0.48437 -2.73835,-6.82507 -6.95114,-15.91777 -15.15625,-24.68555 -0.1311,-0.13968 -0.26327,-0.27836 -0.39649,-0.41602 -6.21095,-6.43747 -14.78701,-13.67587 -26.51562,-18.45507 -0.36813,-0.15039 -0.73862,-0.29494 -1.11133,-0.4336 -7.85143,-2.913 -17.68151,-5.43672 -29.0293,-5.14648 -1.63778,0.0419 -3.284,0.14208 -4.92383,0.30273 -0.22482,0.0221 -0.44943,0.0462 -0.67382,0.0723 -8.86732,1.02995 -19.55388,3.31981 -30.37891,9.17187 -0.11294,0.0606 -0.22557,0.12183 -0.33789,0.1836 -8.01767,4.44079 -16.50523,10.38058 -24.10156,18.66211 -0.0431,0.0474 -0.0861,0.0949 -0.12891,0.14257 -2.78128,3.06339 -5.59374,6.48752 -8.35547,10.18164 -4.97386,-1.76848 -10.6648,-3.2277 -17.20312,-3.7539 -0.59936,-0.0482 -1.1998,-0.0821 -1.80078,-0.10157 -0.26254,-0.009 -1.6633,-0.11328 -4.20899,-0.11328 -0.32881,-4e-4 -0.65762,0.003 -0.98633,0.0117 -13.79368,0.36116 -27.89373,5.80338 -38.42578,15.28516 -2.85958,2.72237 -4.92377,4.96786 -6.70703,7.23242 l -0.008,0.008 c -7.12637,9.11438 -10.39549,18.74854 -11.90039,27.28321 -2.04735,-3.8356 -4.53038,-7.5729 -7.62305,-11.06641 l -0.006,-0.006 c -3.5251,-3.87446 -4.67721,-4.77056 -7.83789,-7.35156 -13.68864,-10.42886 -33.05501,-14.63017 -50.07031,-10.44727 l -0.0176,0.006 c -4.70408,1.15572 -6.75419,2.08244 -10.08398,3.4375 -15.70702,6.95833 -24.90309,17.12227 -31.00586,23.61914 -0.0621,0.0662 -0.12394,0.13259 -0.18555,0.19922 -7.5688,8.17522 -13.05797,16.58567 -17.77344,24.65234 -5.43448,-2.03847 -12.10662,-3.32793 -19.44726,-3.48242 -4.60819,-0.35274 -10.24553,0.49192 -15.45899,2.60547 -3.17998,1.05585 -6.03938,2.44899 -8.75195,3.97266 -3.29443,-8.22918 -8.6161,-17.35499 -17.98828,-24.17188 l -0.004,-0.002 c -9.15201,-5.83968 -15.04842,-8.20737 -22.84961,-9.53711 -16.28898,-2.71251 -28.7682,2.38425 -36.51562,6.2793 -0.45331,0.22789 -0.90197,0.46492 -1.34571,0.71093 -6.49628,3.60194 -11.97188,7.45926 -16.78515,11.0879 -8.14098,-6.78552 -18.45485,-12.40913 -30.67188,-14.68164 h -0.002 c -3.87243,-0.7439 -6.43997,-0.86908 -9.61523,-1.05079 -27.15901,-0.94643 -39.30642,5.75632 -49.63663,12.74535 -5.25777,3.52613 -12.22456,10.43103 -14.28134,12.51442 -0.55172,0.55869 -1.08583,1.13449 -1.60157,1.72656 -5.56105,6.38666 -9.29184,11.80749 -12.13476,15.48828 -0.0648,0.0844 -0.12927,0.169 -0.19336,0.25391 -6.15357,8.10825 -12.38225,16.15742 -18.68555,24.14648 -9.01441,11.42037 -18.17896,22.81388 -27.42773,34.23047 -5.88938,7.25015 -11.63455,14.22904 -17.35156,21.01758 1.14716,-11.23504 3.02384,-22.82481 5.31445,-34.73633 4.74969,-22.72836 10.19208,-44.85173 17.01953,-66.12695 l 0.0137,-0.043 c 1.12494,-3.52037 2.31133,-7.00189 3.46485,-10.50391 0.24547,-0.1799 0.59678,-0.4351 0.83593,-0.60937 0.16241,-0.11785 0.32387,-0.23699 0.48438,-0.35742 16.96701,-12.78331 32.94842,-26.78006 47.85156,-41.79297 l 0.002,-0.002 c 3.16505,-3.18786 5.85392,-6.06504 8.20118,-8.49805 0.13852,-0.14409 0.2759,-0.28928 0.41211,-0.43555 12.81576,-13.71423 25.15754,-28.65386 36.07226,-45.24805 l 0.002,-0.002 c 2.22867,-3.38812 3.91838,-6.21554 5.26368,-8.35547 0.2001,-0.31802 0.39543,-0.63902 0.58593,-0.96289 7.1717,-12.20345 15.03382,-26.78014 19.60547,-44.76758 v -0.002 c 1.04761,-4.12186 1.44789,-6.7483 1.66211,-7.77344 0.16664,-0.79796 0.30734,-1.60111 0.42188,-2.4082 1.74588,-12.29007 3.16089,-30.59409 -7.45899,-49.75 v -0.002 c -5.31661,-8.9619 -11.50027,-15.59742 -17.58008,-20.04492 l -0.004,-0.002 c -12.18174,-8.81572 -26.79046,-12.01283 -39.41407,-11.33789 h -0.004 z"
   id="path13081"
   sodipodi:nodetypes="csccccccccccccccsssccscssccccccccscccscccccscccscccccccccccccccccccccccscccccccccccccccsccscssscccsscccscccscccccccssccccccscccccccccccccsccccccccsccccccscccccccsscccssccccccccscccccccc" /><path
   id="path2"
   d="m 274.08812,228.29234 c -4.3156,0.231 -6.06792,1.05085 -10.16602,2.31445 -12.352,4.9718 -20.72319,13.70008 -29.36719,23.45508 -11.02,12.879 -19.64828,27.4911 -27.86328,42.24609 -10.315,18.79301 -18.9643,38.41535 -27.2793,58.15235 -5.5663,13.359 -10.6411,26.9075 -15.4121,40.5625 -11.333,7.5939 -23.10199,14.54398 -35.33399,20.58398 -2.7359,1.2665 -5.44613,2.58853 -8.20703,3.79883 -11.588,5.0786 -23.69545,9.01938 -36.18945,11.11328 -9.6738,1.351 -19.50022,2.34277 -29.19922,0.57617 -4.6273,-1.0269 -9.18575,-2.39729 -13.18555,-5.02929 -1.3338,-0.9179 -2.52378,-2.00196 -3.83008,-2.94336 0.0192,0.0172 0.042,0.0399 0.0527,0.0664 l -0.002,0.006 c -11.45,-11.449 -27.6404,4.74201 -16.1914,16.19141 2.1092,2.0197 4.45544,3.76106 6.83594,5.44336 5.0559,3.3221 10.63189,5.83712 16.46289,7.45312 1.5418,0.4273 3.11001,0.74614 4.66601,1.11915 9.9609,1.90179 20.18033,1.89176 30.23633,0.78906 2.4271,-0.266 4.83937,-0.65592 7.25977,-0.97852 14.417,-2.3456 28.4052,-6.80284 41.7832,-12.61914 3.0629,-1.3323 6.06776,-2.79345 9.10156,-4.18945 4.9281,-2.4193 9.77881,-4.98892 14.57031,-7.66602 -7.0904,22.632 -12.7125,45.67386 -17.5625,68.88086 -3.4975,18.07 -6.30353,36.3228 -7.33203,54.7168 -0.1785,3.1917 -0.23466,6.38843 -0.35156,9.58203 -0.18,10.991 0.39818,22.03994 2.58008,32.83594 1.2291,6.0834 1.76879,7.28624 3.5918,13.08984 3.36869,8.8173 7.81536,17.93094 15.94726,23.33594 1.6203,1.0762 3.44006,1.81806 5.16016,2.72656 1.9636,0.5167 3.88377,1.25423 5.89258,1.54883 7.98209,1.1779 15.97682,-1.3957 23.04882,-4.875 1.8506,-0.9105 3.62154,-1.97614 5.43164,-2.96484 12.37,-7.3475 22.57357,-17.51674 32.35157,-27.92774 11.177,-12.305 21.65776,-25.21723 32.13476,-38.11523 7.7273,-9.5381 15.40992,-19.11261 23.04492,-28.72461 -1.9709,9.1339 -3.36675,18.37469 -4.28515,27.67969 -0.6469,7.7662 -0.71382,15.59474 0.20898,23.34374 0.5816,4.88351 0.93147,5.98884 1.95117,10.74024 2.0166,7.8931 5.17426,15.53809 10.22266,21.99609 0.9036,1.1563 1.92181,2.21763 2.88281,3.32813 4.2095,4.2545 9.26713,7.59053 15.17383,8.92383 3.9959,0.8998 5.06926,0.63732 9.09766,0.54492 7.5986,-0.916 14.46118,-4.29554 20.36718,-9.08594 1.2384,-1.0039 2.38678,-2.11673 3.58008,-3.17383 7.8292,-7.515 13.31494,-16.8982 18.33594,-26.4082 3.4036,-6.8021 6.2991,-13.86664 8.4043,-21.18164 1.4163,-4.9211 1.5973,-6.2973 2.6289,-11.3125 2.1474,-11.435 2.32562,-23.07511 1.91993,-34.66211 -0.11501,-2.8116 -0.34251,-5.60993 -0.65821,-8.39453 1.1078,-0.5953 2.21084,-1.19926 3.30664,-1.81446 7.3667,-4.33809 14.29463,-9.35709 21.14063,-14.46289 5.3294,-4.0108 10.5719,-8.13162 15.8789,-12.16992 1.1985,-0.881 2.40083,-1.7627 3.61133,-2.6289 -0.172,1.7733 -0.39012,3.54414 -0.60742,5.30664 -1.0358,7.8298 -2.13801,15.64928 -3.09961,23.48828 -1.2273,9.2745 -1.98148,18.5974 -2.39648,27.9414 -0.492,9.6427 -0.002,19.28105 0.98828,28.87305 0.8991,8.3809 2.77228,16.58794 5.39648,24.58594 2.166,5.8611 5.00846,11.77037 9.91406,15.85937 1.0797,0.8997 2.30018,1.61603 3.45118,2.42383 1.3318,0.5854 2.60884,1.31021 3.99414,1.75781 5.6288,1.8032 11.58211,1.03199 16.91211,-1.32421 1.2556,-0.5551 2.42983,-1.27897 3.64453,-1.91797 8.0107,-4.9148 13.29754,-12.56722 18.06054,-20.44922 4.9818,-8.7126 9.02754,-17.91483 12.86914,-27.17383 3.6587,-8.8945 6.72947,-18.01403 9.54297,-27.20703 2.1076,-6.8837 3.8958,-13.85775 5.625,-20.84375 0.2852,-1.0961 0.55583,-2.19713 0.82813,-3.29883 2.0023,1.3879 4.03984,2.72198 6.14844,3.95508 5.6355,3.2408 11.87442,4.89128 18.23242,5.95508 1.4165,0.2149 2.8331,0.34274 4.25,0.43164 -0.6867,3.7418 -1.31087,7.49538 -1.82617,11.26758 -0.9531,8.0698 -1.23689,16.26489 -0.14649,24.33789 0.2074,1.5339 0.51634,3.05172 0.77344,4.57812 1.5343,7.2496 4.15267,14.33177 8.70117,20.25977 0.8977,1.1696 1.92703,2.23215 2.89063,3.34765 5.2609,5.2802 11.81631,8.81769 19.07031,10.49219 1.4344,0.3337 2.89885,0.5171 4.34765,0.7793 10.044,1.3455 19.93524,-0.73616 29.61524,-3.22657 11.534,-3.2734 22.7143,-7.64432 33.9043,-11.91992 12.879,-4.9482 25.75422,-9.90568 38.69922,-14.67578 13.854,-5.2142 28.04109,-9.41664 42.37109,-13.08594 14.7,-3.7006 29.63783,-6.31039 44.67383,-8.15429 9.3857,-1.0369 18.84225,-1.47223 28.28125,-1.11133 5.8421,0.2217 7.70837,0.48913 13.51367,1.05273 10.255,1.2579 20.4785,3.29665 30.1875,6.90235 1.6863,0.6273 3.33139,1.36121 4.99609,2.04101 1.5717,0.7332 3.14359,1.46622 4.71489,2.19922 14.692,6.8066 24.3166,-13.97134 9.625,-20.77734 v 0.002 c -1.9212,-0.885 -3.8425,-1.7703 -5.7637,-2.6543 -2.1036,-0.8422 -4.1842,-1.74984 -6.3125,-2.52734 -11.35797,-4.1489 -23.28459,-6.54892 -35.26559,-7.97852 -6.6415,-0.6263 -8.62737,-0.91669 -15.32227,-1.15429 -10.5,-0.3741 -21.01998,0.11815 -31.45898,1.28125 -16.006,1.9827 -31.9116,4.74106 -47.5586,8.69726 -15.082,3.8732 -30.01856,8.29661 -44.60156,13.78321 -13.031,4.8032 -25.99208,9.78968 -38.95508,14.77148 -10.398,3.9728 -20.78237,8.04663 -31.48437,11.14453 -6.551,1.7183 -13.25003,3.40014 -20.08203,2.80664 -3.6923,-0.5294 -7.26736,-1.39082 -10.12696,-3.94922 -3.4362,-3.5192 -5.05881,-7.48763 -6.10351,-12.27343 -1.321,-7.2487 -1.48524,-14.59711 -0.49414,-21.91211 0.7738,-5.7615 1.792,-11.48244 3.0664,-17.14844 5.966,-1.7508 11.65474,-4.30391 17.17774,-7.19141 7.5268,-4.0027 14.11073,-9.37073 20.17773,-15.30273 5.7855,-5.8116 10.12694,-12.71611 13.71094,-20.03711 2.3328,-5.2581 4.26828,-10.77439 4.89258,-16.52539 0.118,-1.0865 0.13763,-2.18109 0.20703,-3.27148 -0.007,-5.813 -1.63483,-11.48435 -5.54883,-15.90235 -0.7526,-0.8504 -1.64094,-1.57097 -2.46094,-2.35547 -5.3024,-4.0397 -11.74214,-5.42848 -18.24414,-3.83008 -1.3111,0.323 -2.55704,0.86804 -3.83594,1.30274 -7.4852,3.316 -13.28568,9.0914 -18.80468,14.9668 -6.1544,6.6475 -11.05711,14.23953 -15.41211,22.14453 -4.361,8.2652 -7.45537,17.08028 -10.19727,25.98828 -2.0708,0.1007 -4.14806,0.0553 -6.22656,-0.22852 -3.6027,-0.5288 -7.15334,-1.38305 -10.36914,-3.15625 -3.0397,-1.7346 -5.85172,-3.79505 -8.63672,-5.91015 -4.1406,-2.9251 -8.29476,-5.64965 -13.60156,-5.58985 -1.3338,0.2272 -2.71796,0.25304 -4.00196,0.68164 -5.0796,1.6815 -8.31542,5.83684 -10.35742,10.55664 -1.7395,4.5225 -2.97384,9.20087 -4.08594,13.91407 -1.6293,6.5858 -3.30872,13.16234 -5.29492,19.65234 -2.5919,8.4925 -5.42622,16.91481 -8.79882,25.13281 -3.40301,8.224 -6.98072,16.39911 -11.35352,24.16211 -2.6393,4.4462 -5.3599,9.01363 -9.5332,12.20703 -0.0158,0.01 -1.91917,1.24224 -1.91797,1.30274 0.002,0.2476 0.83086,0.50921 0.72656,0.85351 -0.1902,0.618 -1.19324,-0.78906 -1.21094,-0.78906 -1.2153,-1.6018 -1.95752,-3.50203 -2.66992,-5.36133 -2.1608,-6.4089 -3.59502,-13.02014 -4.35351,-19.74414 -0.8909,-8.4678 -1.32232,-16.97523 -0.88672,-25.49023 0.3815,-8.751 1.09804,-17.47806 2.24804,-26.16407 0.96,-7.83809 2.06991,-15.65732 3.09961,-23.48632 0.737,-6.043 1.47478,-12.15324 0.80078,-18.24024 -0.885,-5.4875 -2.44521,-10.53133 -7.19531,-13.98633 -1.0594,-0.7704 -2.28919,-1.2731 -3.43359,-1.9082 -1.1496,-0.3121 -2.27277,-0.74045 -3.44727,-0.93555 -4.6714,-0.7779 -9.28144,0.70555 -13.40234,2.77735 -4.5372,2.5157 -8.78872,5.47467 -12.91992,8.60937 -5.2486,3.9955 -10.43708,8.06867 -15.70508,12.03907 -5.1158,3.8184 -10.29155,7.57002 -15.68555,10.98632 -2.1157,-6.3204 -4.76468,-12.53921 -8.70898,-17.94921 -0.8211,-1.12581 -1.74895,-2.17116 -2.62305,-3.25586 -4.5514,-4.9692 -10.27661,-8.6879 -16.97461,-9.9336 -1.2513,-0.2337 -2.53012,-0.28769 -3.79492,-0.42969 -6.0638,-0.172 -11.88605,1.50622 -16.99805,4.75782 -0.9436,0.6004 -1.82347,1.29681 -2.73437,1.94531 -1.1456,0.9266 -2.22906,1.92146 -3.25196,2.97266 -0.585,-0.2802 -1.17937,-0.53624 -1.79297,-0.74024 -4.33609,-1.4405 -8.58516,2.42166 -11.25976,5.13086 -3.8259,4.3939 -7.17187,9.16994 -10.73047,13.77734 -6.2959,8.2958 -12.66914,16.53204 -19.11914,24.70704 -9.1593,11.604 -18.42547,23.12337 -27.73047,34.60937 -10.136,12.478 -20.26945,24.97063 -31.06445,36.89063 -8.1322,8.6896 -16.5391,17.27854 -26.7461,23.56054 -4.2639,2.413 -8.59674,4.80424 -13.49414,5.61524 -0.3274,-0.0598 -0.67607,-0.0574 -0.98437,-0.17774 -3.9758,-1.6057 -6.57169,-8.60078 -8.08789,-12.14258 -1.4307,-4.3927 -1.86429,-5.34125 -2.83789,-10.00195 -1.932,-9.243 -2.39597,-18.72158 -2.26367,-28.14258 0.1013,-2.9061 0.14443,-5.81505 0.30273,-8.71875 0.9509,-17.386 3.61971,-34.63579 6.91211,-51.71679 4.9414,-23.682 10.6987,-47.19024 18.0957,-70.24024 2.3942,-7.4924 4.85478,-14.96415 7.39258,-22.41015 0.4475,-0.3131 0.90176,-0.6187 1.34766,-0.9336 3.1209,-2.2036 6.17432,-4.5003 9.26172,-6.75 15.492,-11.672 30.12211,-24.48205 43.78711,-38.24804 2.64729,-2.6663 5.21561,-5.40939 7.82421,-8.11329 11.725,-12.547 22.67805,-25.86851 32.12305,-40.22851 1.6671,-2.5343 3.2311,-5.13678 4.8457,-7.70508 6.4621,-10.996 12.41227,-22.52498 15.57227,-34.95898 0.5201,-2.0461 0.86477,-4.13338 1.29687,-6.20118 1.2444,-8.7599 1.31718,-18.20259 -3.10742,-26.18359 -0.8268,-1.4913 -1.92472,-2.81566 -2.88672,-4.22266 -1.2778,-1.1909 -2.41918,-2.54816 -3.83398,-3.57226 -4.4905,-3.2497 -9.83255,-4.52943 -15.31445,-4.23633 z m 0.88867,21.62109 c 1.2857,0.0605 1.44319,1.8664 1.68359,2.8418 0.7469,3.0274 0.52506,6.1593 0.13086,9.2168 -0.2763,1.4381 -0.48538,2.8927 -0.83008,4.3164 -2.5206,10.419 -7.66383,20.00294 -12.99023,29.21094 -3.9949,6.3814 -4.79612,7.8688 -9.23242,14.0957 -7.5569,10.606 -15.93018,20.61615 -24.82618,30.11915 -2.45529,2.55009 -4.87373,5.13433 -7.36523,7.64843 -7.4615,7.5294 -15.26436,14.71738 -23.31836,21.60938 0.7585,-1.8751 1.51312,-3.7528 2.29102,-5.6211 7.9885,-18.973 16.28745,-37.84015 26.18945,-55.91015 7.4039,-13.326 15.13139,-26.56042 25.02539,-38.23242 5.6612,-6.4546 11.72688,-12.4191 19.42188,-17.3711 3.819,-1.9241 2.82481,-1.43363 3.82031,-1.92383 z m 510.80078,130.7168 c -0.73467,0.0188 -1.47164,0.0641 -2.21289,0.13672 -5.8587,0.6805 -11.5776,2.06077 -16.80859,4.88867 -5.40121,2.9916 -10.3978,6.59958 -14.5918,11.17188 -3.9199,4.3175 -7.53211,8.89908 -10.50781,13.92968 -2.8574,4.8455 -5.5411,9.78916 -7.8086,14.94336 -1.4183,3.2121 -2.81308,6.43523 -4.23828,9.64453 -2.0918,-1.9105 -4.19225,-3.81294 -6.37305,-5.62304 -3.8171,-3.158 -7.67062,-6.30562 -11.95312,-8.82422 -4.8622,-2.7124 -9.96765,-4.96126 -15.59375,-5.41406 -0.9962,-0.0323 -1.99228,-0.0937 -2.98828,-0.0937 -5.3127,0.1391 -10.25213,2.06409 -14.20313,5.62109 -0.7468,0.8151 -1.56099,1.57657 -2.24218,2.44727 -3.1409,4.0171 -4.54555,8.99335 -4.96485,14.00195 -0.173,6.3559 0.71847,12.21836 2.98047,18.19336 2.7872,7.2051 6.32497,14.07954 11.44727,19.93555 h 0.002 c 5.7463,6.34059 11.90722,11.67785 19.07422,16.38085 7.0417,4.6169 14.25548,9.04323 22.14648,12.07813 5.0948,1.903 10.25436,3.61995 15.56836,4.81055 1.5157,0.3677 3.04905,0.65356 4.53125,1.13086 l 0.002,-0.002 c 15.569,4.4483 21.86012,-17.56958 6.29102,-22.01758 -1.6813,-0.5329 -3.63272,-0.92908 -5.41992,-1.36328 -4.4137,-0.9788 -8.69632,-2.39929 -12.91992,-3.99609 -6.2846,-2.4739 -12.00996,-6.0818 -17.62696,-9.7793 -5.3793,-3.5681 -10.32775,-7.68174 -14.59375,-12.52344 -3.2114,-3.78079 -5.38362,-8.20575 -7.10742,-12.81835 -1.0344,-2.9322 -1.75514,-5.96414 -1.49414,-9.08204 -0.0107,-0.0251 -0.006,-0.0645 -0.0117,-0.0937 0.0723,0.006 0.14744,0.007 0.21094,0.0312 2.0309,0.436 3.8483,1.44372 5.625,2.47852 3.0763,1.905 5.85817,4.23812 8.63867,6.54102 2.675,2.2289 5.22032,4.60261 7.79102,6.94921 2.2458,2.0821 4.51489,4.12343 6.99609,5.91993 3.559,2.3008 7.75144,3.37198 11.96484,2.30078 3.2226,-0.8181 3.94542,-1.71033 6.44532,-3.57813 3.3799,-3.2059 5.46282,-7.37602 7.45312,-11.51562 1.8917,-4.1376 3.66901,-8.32403 5.50781,-12.48633 1.907,-4.3321 4.17168,-8.48469 6.58008,-12.55469 2.1863,-3.6565 4.80946,-7.00135 7.69336,-10.12695 2.4965,-2.6404 5.39208,-4.81959 8.60938,-6.49219 2.6047,-1.3661 5.43469,-1.98605 8.33789,-2.24805 2.2708,-0.1466 4.42344,0.39599 6.49414,1.27149 2.0255,0.9735 3.71362,2.42423 5.20312,4.08203 1.4233,1.6342 2.28057,3.62851 3.03907,5.63281 0.6268,1.8092 0.70198,3.6703 0.58398,5.5586 -0.2513,2.5673 -0.93644,5.05844 -1.74414,7.49804 -1.2002,3.3019 -2.91691,6.37699 -4.69141,9.39649 -2.5942,4.3243 -5.42663,8.49835 -8.36133,12.59765 -3.89059,5.3503 -8.00563,10.53519 -12.08593,15.74219 -9.9883,12.743 8.03483,26.87 18.02343,14.125 4.28801,-5.4707 8.60726,-10.91887 12.68946,-16.54687 3.3369,-4.6714 6.5624,-9.42698 9.5039,-14.35938 2.5919,-4.4497 5.04534,-9.00478 6.70704,-13.89648 1.4247,-4.4552 2.57879,-9.01077 2.84179,-13.70118 0.1387,-5.04719 -0.32875,-10.04678 -2.16015,-14.80078 -1.8883,-4.7064 -4.20082,-9.2324 -7.69922,-12.9707 -3.9237,-4.0668 -8.33474,-7.57131 -13.61914,-9.72461 -4.83517,-1.79392 -9.81827,-2.93817 -14.96094,-2.80664 z m -90.91406,56.04688 c -0.002,0.0675 -0.0582,0.23775 -0.19922,0.55078 0.0693,0.1106 -0.20023,0.36564 -0.45703,0.58984 0.17707,-0.61582 0.66217,-1.34307 0.65625,-1.14062 z m -113.55078,22.07617 c -0.4233,2.9093 -1.47808,5.70921 -2.64258,8.41211 -2.3716,4.9979 -5.28331,9.70175 -9.16211,13.68945 -3.7034,3.6868 -7.71695,7.0271 -12.15235,9.7793 0.8634,-2.0173 1.79299,-4.00819 2.80469,-5.96289 3.3983,-6.2432 7.22918,-12.24291 12.05078,-17.50391 2.8165,-3.0245 5.70187,-6.03866 9.10157,-8.41406 z m -253.62696,24.04101 c 2.0269,-0.2159 3.62216,0.73491 5.03516,2.16211 3.6561,4.1259 5.80114,9.24913 7.46484,14.45703 0.1631,0.5668 0.28721,1.14204 0.44141,1.71094 -3.5756,0.7657 -7.2082,1.32705 -10.875,1.00195 -2.1084,-0.2812 -4.1279,-0.73151 -5.8457,-2.07031 -1.4749,-1.2446 -2.69688,-2.72463 -3.45118,-4.51953 -0.6059,-1.6447 -0.80451,-3.28516 -0.32421,-5.00586 h -0.002 c 0.6174,-2.0854 1.67835,-3.95969 3.31055,-5.42969 1.2572,-1.0403 2.60309,-2.01274 4.24609,-2.30664 z m -22.24218,31.04493 c 0.88499,0.9986 1.8176,1.9767 2.8164,2.9414 4.1208,3.5649 8.99178,6.05793 14.30078,7.29883 1.0969,0.2562 2.21527,0.40779 3.32227,0.61719 6.1906,0.8895 12.36431,0.22051 18.44531,-0.96289 0.0119,0.224 0.0423,0.44582 0.0527,0.66992 0.3654,9.7833 0.27208,19.61425 -1.47852,29.28125 -0.7936,3.9738 -0.94221,5.12142 -2.03711,9.01562 -1.6893,6.0034 -4.05642,11.79496 -6.82422,17.37696 -3.7363,7.1395 -7.70785,14.2794 -13.41015,20.0664 -2.8873,2.6857 -5.94318,5.31443 -9.83008,6.39063 -2.6483,0.545 -3.83554,0.0433 -5.92774,-1.81055 -4.086,-4.3568 -6.36931,-9.22702 -7.85351,-15.01172 -0.7762,-3.4529 -1.06618,-4.36869 -1.51758,-7.93359 -0.7989,-6.3135 -0.7388,-12.7002 -0.2207,-19.03321 1.0403,-10.83799 2.83684,-21.57676 5.52734,-32.13476 1.4381,-5.6203 2.96707,-11.21648 4.63477,-16.77148 z"
   style="fill:url(#linearGradient17796);fill-opacity:1;stroke:none;stroke-width:1.99903;stroke-miterlimit:4;stroke-dasharray:none;stroke-opacity:1" />
	
	
</g><g
     aria-label="forms"
     id="text23533"
     style="font-size:131.871px;line-height:1.25;font-family:'Hugh is Life Personal Use';-inkscape-font-specification:'Hugh is Life Personal Use';display:inline;fill:#8300f2;fill-opacity:1;stroke-width:1.37366"
     transform="translate(-33.531964,-1.6706489)"
     inkscape:label="forms"><path
       d="m 469.68367,417.8659 q -0.90146,0 -1.35219,-0.77268 -0.19317,-0.19317 -0.32195,-0.70829 -0.12878,-0.57951 0.0644,-1.80293 0.12878,-1.2878 0.83707,-3.73462 0.70829,-2.51122 2.18926,-6.63219 3.60585,-9.91608 9.46536,-22.8585 5.53755,-12.23412 11.52583,-23.18045 6.05267,-11.01071 9.98047,-14.42339 1.35219,-0.96585 2.25366,-0.96585 0.90146,-0.0644 1.35219,0.32195 1.80292,1.09463 0.83707,5.08682 -1.60975,6.37462 -5.79511,12.36291 -4.18536,5.98828 -8.69267,10.55998 -4.44292,4.50731 -6.88975,6.56779 -0.90146,1.86732 -1.80292,3.79902 -2.31804,5.08682 -4.37853,9.98047 6.88975,-1.09463 12.23413,-4.63609 5.34438,-3.54145 10.75315,-9.40096 0.38634,-0.38634 0.90146,-0.38634 0.51512,0 0.90146,0.32195 0.38635,0.38634 0.38635,0.90147 0.0644,0.51512 -0.32196,0.96585 -5.66633,6.05267 -11.52583,9.91608 -5.79511,3.79902 -13.32876,4.89365 1.9961,6.18145 -0.57951,13.19998 -2.57561,6.95413 -7.53365,10.23803 -0.57951,0.38634 -1.15902,0.38634 z m 7.2117,-21.50631 q -1.67415,4.12097 -2.96195,7.66243 -3.09073,8.56389 -3.2839,10.4312 3.60585,-3.09072 5.40878,-8.30632 1.73853,-5.28 0.83707,-9.78731 z M 504.26118,345.427 q -0.19317,0.12878 -0.57952,0.38634 -5.02243,4.31414 -15.51802,25.49849 4.5717,-4.37853 9.33657,-10.62437 4.76487,-6.31024 6.50341,-13.0712 0.38634,-1.73853 0.25756,-2.18926 z"
       style="font-family:'Better Grade';-inkscape-font-specification:'Better Grade';fill:#8300f2;fill-opacity:1"
       id="path65160" /><path
       d="m 499.23875,396.87472 q -2.06049,0.0644 -2.96195,-0.96586 -1.67414,-1.80292 -1.48097,-5.15121 0.19317,-3.34829 1.60975,-6.56779 1.35219,-2.96195 3.09073,-4.63609 1.73853,-1.73854 3.02633,-2.44683 1.2878,-0.70829 1.48098,-0.70829 0.51512,-0.12878 0.96585,0.12878 0.45073,0.19317 0.6439,0.70829 0.19317,0.51512 -0.0644,0.96586 -0.19317,0.45073 -0.70829,0.6439 -0.12878,0 -1.15903,0.57951 -1.03024,0.57951 -2.38243,1.99609 -1.41658,1.3522 -2.51122,3.79902 -1.2878,2.96195 -1.41658,5.47316 -0.12878,2.51122 0.70829,3.34829 0.45073,0.38634 1.15903,0.25756 0.70829,-0.12878 1.35219,-0.45073 4.5717,-2.44683 6.43901,-8.24194 1.54537,-5.47316 -0.57951,-9.65852 l -0.19317,-0.38634 q -0.25756,-0.51512 -0.12878,-0.96585 0.19317,-0.51512 0.6439,-0.77268 0.45073,-0.25756 0.90146,-0.0644 0.51512,0.12878 0.83708,0.57951 0.0644,0.12878 0.19317,0.32195 0.32195,0.6439 1.2878,1.80292 1.03024,1.09463 3.34829,1.93171 2.31804,0.77268 4.95804,-0.57952 0.51512,-0.32195 0.96585,-0.19317 0.51512,0.0644 0.83707,0.51513 0.32195,0.51512 0.19317,1.03024 -0.12878,0.45073 -0.57951,0.77268 -3.60585,1.99609 -6.18145,1.15902 -2.57561,-0.83707 -3.34829,-1.2878 0.32195,3.15512 -0.6439,6.5034 -2.18927,6.88975 -7.79121,9.7873 -1.48097,0.7083 -2.51121,0.77269 z"
       style="font-family:'Better Grade';-inkscape-font-specification:'Better Grade';fill:#8300f2;fill-opacity:1"
       id="path65162" /><path
       d="m 520.55188,372.08451 0.19317,-0.38634 q 0.25756,-0.38634 0.6439,-0.57951 0.45074,-0.19317 0.96586,0 0.51512,0.19317 0.70829,0.6439 0.19317,0.32195 0.12878,0.70829 v 0.12878 q -0.0644,0.0644 -0.0644,0.12878 l -3.15512,8.17755 q 2.06049,-3.15512 3.41268,-4.76487 1.35219,-1.67414 2.18926,-2.25365 0.90147,-0.57952 1.54537,-0.51513 1.09463,-0.0644 1.73853,0.90147 l 0.0644,0.12878 q 1.73853,2.83316 3.09073,4.12097 1.41658,1.2878 3.47706,0.77268 2.57561,-0.77268 3.54146,-1.22342 1.03024,-0.45073 1.03024,-0.45073 1.15903,-0.51512 1.60976,0.57952 0.51512,1.03024 -0.0644,1.48097 -0.12878,0.12878 -1.3522,0.70829 -1.15902,0.51512 -4.05657,1.35219 -1.03025,0.32195 -1.93171,0.32195 -2.51121,-0.12878 -4.24975,-1.86731 -1.67414,-1.80292 -3.02633,-4.12097 -0.51512,0.25756 -2.25366,2.51122 -1.73853,2.25365 -5.2156,8.04876 -2.31804,4.05658 -3.9278,7.14731 -1.67414,3.09073 -1.73853,3.2839 -0.45073,0.70829 -1.15902,0.70829 -0.25756,0 -0.51513,-0.12878 -0.51512,-0.19317 -0.70829,-0.6439 -0.19317,-0.51513 0,-0.96586 z"
       style="font-family:'Better Grade';-inkscape-font-specification:'Better Grade';fill:#8300f2;fill-opacity:1"
       id="path65164" /><path
       d="m 534.00942,397.71179 q -0.38634,0 -0.70829,-0.19317 -0.6439,-0.51512 -0.57951,-1.22342 0,-0.70829 0.32195,-1.48097 0.32195,-1.03024 1.03024,-2.96195 1.22341,-3.15511 3.47707,-8.56388 1.99609,-4.76487 3.54146,-8.43511 1.54536,-3.67024 1.67414,-3.86341 0.19317,-0.51512 0.6439,-0.70829 0.51512,-0.19317 1.03024,0 0.51512,0.25756 0.7083,0.77268 0.19317,0.45073 0,0.96585 -3.41268,7.79121 -6.24585,14.74534 4.12097,-6.56779 7.34048,-10.94632 2.38243,-3.02634 3.9278,-3.60585 1.54536,-0.6439 2.38243,-0.0644 1.60975,1.09463 0.70829,3.54146 -4.05658,9.98047 -4.76487,13.7151 0.90146,-1.09463 1.9961,-2.70439 1.09463,-1.60975 2.06048,-3.15511 2.51122,-4.12097 4.12097,-5.98829 1.67414,-1.9317 3.02634,-1.60975 0.77268,0.25756 1.09463,0.83707 0.38634,0.51512 0.45073,1.09463 0.12878,0.57952 0.12878,0.90147 0.25756,3.47706 0.77268,5.40877 0.57951,1.9317 1.2878,3.15511 0.25756,0.38635 0.45074,0.51513 0.19317,0.12878 0.38634,0.19317 1.48097,0 4.05657,-2.06049 2.64,-2.06048 5.15122,-4.63609 2.5756,-2.5756 3.99218,-4.05658 0.38635,-0.38634 0.90147,-0.38634 0.51512,-0.0644 0.90146,0.32195 0.38634,0.38634 0.38634,0.90147 0.0644,0.51512 -0.32195,0.90146 -6.05267,6.5034 -9.65852,9.20779 -3.54146,2.63999 -5.73072,2.31804 -0.64391,-0.0644 -1.41659,-0.45073 -0.70829,-0.38634 -1.35219,-1.48097 -0.83707,-1.41659 -1.48097,-3.60585 -0.57951,-2.18926 -0.90147,-5.98828 -0.83707,0.96585 -1.99609,2.70438 -1.09463,1.67415 -2.12487,3.21951 -3.86341,6.43901 -6.05268,7.72682 -0.83707,0.38634 -1.41658,0.25756 -0.51512,-0.19317 -0.77268,-0.45073 -0.19317,-0.12878 -0.45073,-0.51513 -0.19317,-0.45073 -0.19317,-1.41658 0.0644,-1.03024 0.51512,-2.89755 0.45073,-1.93171 1.54536,-5.02244 1.09463,-3.15511 3.02634,-7.85559 -0.83707,0.38634 -2.64,2.63999 -1.60975,2.12488 -3.73463,5.40878 -2.12487,3.2195 -4.18536,6.56779 -3.67023,5.8595 -5.15121,7.72682 -0.57951,0.57951 -1.15902,0.57951 z"
       style="font-family:'Better Grade';-inkscape-font-specification:'Better Grade';fill:#8300f2;fill-opacity:1"
       id="path65166" /><path
       d="m 572.51472,405.37421 q -0.70829,0 -1.2878,-0.19317 -1.15903,-0.45073 -1.48098,-1.86731 -0.38634,-1.80292 1.41659,-5.15121 1.80292,-3.41268 6.76096,-7.98438 0.51512,-0.51512 1.09463,-1.03024 -0.12878,-3.15512 -0.51512,-5.8595 -0.38634,-2.76878 -0.6439,-4.18536 -0.45073,-3.21951 1.41658,-5.2156 1.86732,-2.06049 3.67024,-2.70439 0.51512,-0.19317 0.96585,0.0644 0.51512,0.19317 0.7083,0.6439 0.19317,0.51512 0,1.03024 -0.19318,0.45073 -0.7083,0.64391 -0.12878,0.0644 -0.77268,0.38634 -0.57951,0.32195 -1.35219,0.96585 -0.70829,0.6439 -1.15902,1.60975 -0.45073,0.90146 -0.25756,2.12488 0.6439,3.09072 1.09463,8.4351 5.34438,-4.31413 9.40096,-7.01852 4.05658,-2.76878 4.31414,-2.89756 0.45073,-0.25756 0.96585,-0.12878 0.51512,0.0644 0.83707,0.51512 0.25756,0.51512 0.12878,1.03025 -0.12878,0.45073 -0.57951,0.77268 -0.32195,0.12878 -4.82926,3.2195 -4.44292,3.02634 -10.04486,7.72682 0.12878,4.76487 -1.15902,8.30633 -1.54537,3.54146 -3.79902,5.15121 -2.31805,1.60975 -4.18536,1.60975 z m -0.19317,-2.5756 q 0.90146,0.19317 2.63999,-0.90146 1.73854,-1.15903 3.15512,-4.24975 0.77268,-2.12488 0.90146,-5.02243 -4.24975,4.12096 -5.60194,6.76096 -1.35219,2.64 -1.09463,3.41268 z"
       style="font-family:'Better Grade';-inkscape-font-specification:'Better Grade';fill:#8300f2;fill-opacity:1"
       id="path65168" /></g></g></svg>
