<?xml version="1.0" encoding="UTF-8"?>
<svg enable-background="new 0 0 864 864" version="1.1" viewBox="0 0 563.62 416.2" xml:space="preserve" xmlns="http://www.w3.org/2000/svg" xmlns:xlink="http://www.w3.org/1999/xlink"><g transform="rotate(-42.529 -22.326 26.683)" fill="#eb00f2" stroke-width="1.8768" aria-label="Shareable"><path d="m-135.72 278.26q-5.9821-0.26392-7.6536-2.7272-3.167-3.6069-0.87973-9.501 2.3753-6.2461 11.612-13.284 9.3251-7.1258 25.776-10.997-2.9031-6.9498-9.9409-15.571-5.1904-6.51-9.8529-13.9-4.5746-7.4777-6.0701-15.571-1.4076-8.1815 2.8151-16.803 7.5656-14.164 21.201-22.873 12.492-7.6536 24.192-7.6536 11.436 0.26391 15.483 8.1814 2.6392 4.4866 0.61581 13.812-1.9354 9.3251-13.548 25.072-0.43986 0.61581-1.1436 0.70378-0.70378 0.088-1.3196-0.35189-0.52784-0.52784-0.70378-1.1436-0.08797-0.70378 0.35189-1.3196 7.7416-10.381 10.733-17.419 2.9911-7.0378 2.9911-11.348 0.08797-4.3107-1.1436-6.422-3.079-6.0701-12.404-6.2461-0.17595 0-0.35189 0-6.51 0-14.428 3.255-7.8296 3.255-15.131 9.677-7.2138 6.334-12.228 15.747-3.7828 7.6536-2.3753 14.955t5.7182 14.252q4.3107 6.8619 9.4131 13.284 3.6069 4.6626 6.422 8.8852 2.9031 4.2227 4.1347 8.0935 5.1904-0.96769 10.997-1.3196 0.70378-0.088 1.2316 0.43987 0.52784 0.43986 0.61581 1.1436 0 0.79176-0.43986 1.3196-0.43986 0.52784-1.2316 0.61581-5.6302 0.35189-10.469 1.2316 1.4076 11.524-6.422 20.762-7.1258 8.0935-18.034 11.612-5.1904 1.4076-8.5334 1.4076zm29.559-33.078q-13.284 3.255-19.882 7.4777-11.524 6.7739-14.955 14.691-0.52784 1.1436-0.70378 2.8151-0.17595 1.6715 0.87972 2.9911 3.167 2.9911 12.668 0.26392 9.3251-2.8151 16.011-10.117 6.7739-7.3017 5.9821-18.122z"/><path d="m-84.083 246.76q-0.43986 0-0.79175-0.17595-0.70378-0.26392-0.87973-0.87973-0.26392-0.70378 0-1.3196 0.17594-0.52784 3.343-7.7416 3.079-7.2138 7.7416-17.858 4.6626-10.645 9.3251-21.377 4.6626-10.733 8.0055-18.122 6.9498-15.395 12.844-16.011 2.0234-0.088 3.167 1.6715 2.9911 6.51-6.6859 22.609-2.9911 4.5746-8.0935 11.612-5.0144 6.9498-9.501 12.932-4.3986 5.8942-5.4543 7.3017-1.5835 3.5189-2.9911 6.7739 5.0144-6.9498 9.589-10.909 1.2316-0.9677 2.7272-1.5835 1.4955-0.70378 2.9911 0 1.8474 1.0557 2.0234 3.9588 0.17595 2.8151-0.26392 6.9498-0.17594 1.8474-0.35189 4.1347-0.08797 2.2873 0.08797 4.1347 0.17594 1.8474 0.9677 2.3753 0.08797 0 0.35189 0.088 0.35189 0 1.0557-0.17594 0.70378-0.17595 1.7595-0.70378 1.1436-0.61581 2.8151-1.7595 3.6069-2.6392 6.598-5.4543 2.9911-2.9031 4.8385-4.9265 1.8474-2.0234 1.9354-2.1114 0.52784-0.6158 1.2316-0.6158 0.70378-0.088 1.2316 0.35189 0.61581 0.52783 0.61581 1.2316 0.08797 0.70379-0.35189 1.2316-0.17594 0.26392-2.1113 2.3753-1.9354 2.1114-5.1024 5.1024-3.079 2.9031-6.8619 5.6302-2.1113 1.6715-4.8385 2.8151-2.6392 1.0557-4.9265-0.088-2.4632-1.5835-2.7272-5.4543-0.26392-3.9588 0.26392-8.5333 0.17595-2.0234 0.26392-4.1347 0.08797-2.1993-0.17594-3.255-0.35189 0.088-1.8474 1.2316-3.079 2.5512-6.5979 7.0378-3.4309 4.4866-6.51 9.2371-3.167 4.6626-5.1024 8.0055-2.0234 3.343-2.1113 3.5189-0.61581 0.87973-1.4955 0.87973zm39.676-80.055q-0.70378-0.088-3.343 2.8151-2.5512 2.8151-6.422 11.173-4.3986 9.9409-10.821 24.72 3.9588-5.3663 7.8296-10.733 3.8708-5.4543 6.1581-9.0612 5.2784-8.7093 6.2461-13.372 1.0557-4.7505 0.35189-5.5423z"/><path d="m-40.8 242.28q-0.87973 0-1.5835-0.26392-0.70378-0.26391-1.4955-1.3196-0.79175-1.1436-0.79175-3.5189 0.35189-5.5423 4.7505-12.58 4.3107-7.1258 10.293-9.589 2.0234-0.79176 4.6626-0.35189 2.6392 0.35189 5.4543 3.343 1.7595-2.2873 2.8151-3.7828 1.0557-1.4955 1.1436-1.4955 0.35189-0.61581 0.9677-0.70378 0.70378-0.17595 1.3196 0.17594 0.61581 0.35189 0.79175 0.9677 0.17595 0.61581-0.08797 1.2316-3.9588 9.589-4.2227 14.428-0.17594 4.8385 1.6715 5.8062 2.6392 1.4955 8.7093-2.1993 6.1581-3.7828 13.372-12.492 0.43986-0.61581 1.1436-0.70378 0.70378-0.088 1.3196 0.43986 0.52784 0.43986 0.61581 1.1436 0.08797 0.70378-0.35189 1.3196-13.284 15.923-23.137 16.451-2.0234 0-3.5189-0.9677-2.0234-0.9677-2.9911-4.2227-0.9677-3.255 0.52784-9.765-4.3986 5.6302-9.3251 10.733-8.0055 8.0055-12.052 7.9175zm-0.08797-3.5189t0.35189 0q0.26392 0 0.9677-0.26392 0.70378-0.35189 1.8474-1.0557 1.0557-0.70379 2.6392-2.0234 1.5835-1.4076 3.7828-3.6069 5.1024-5.1904 9.589-10.997-0.17595-0.17594-0.35189-0.35189-2.5512-2.9911-5.6302-2.3753-3.9588 1.0557-7.5656 5.8942-3.6069 4.7505-5.2784 10.029-0.70378 2.4632-0.61581 3.6069 0.08797 1.0557 0.26392 1.1436z"/><path d="m9.8722 212.63 0.26392-0.52784q0.35189-0.52784 0.87973-0.79175 0.61581-0.26392 1.3196 0 0.70378 0.26391 0.9677 0.87972 0.26392 0.43987 0.17595 0.9677v0.17595q-0.08797 0.088-0.08797 0.17594l-4.3107 11.173q2.8151-4.3107 4.6626-6.51 1.8474-2.2873 2.9911-3.079 1.2316-0.79175 2.1113-0.70378 1.4955-0.088 2.3753 1.2316l0.08797 0.17594q2.3753 3.8708 4.2227 5.6302 1.9354 1.7595 4.7505 1.0557 3.5189-1.0557 4.8385-1.6715 1.4076-0.61581 1.4076-0.61581 1.5835-0.70378 2.1993 0.79176 0.70378 1.4076-0.08797 2.0234-0.17594 0.17595-1.8474 0.9677-1.5835 0.70378-5.5423 1.8474-1.4076 0.43987-2.6392 0.43987-3.4309-0.17595-5.8062-2.5512-2.2873-2.4632-4.1347-5.6302-0.70378 0.35189-3.079 3.4309-2.3753 3.079-7.1258 10.997-3.167 5.5423-5.3663 9.765-2.2873 4.2227-2.3753 4.4866-0.61581 0.9677-1.5835 0.9677-0.35189 0-0.70378-0.17595-0.70378-0.26392-0.9677-0.87973-0.26392-0.70378 0-1.3196z"/><path d="m41.454 241.93q-7.3017-0.088-8.7973-7.0378-0.9677-5.7182 2.3753-12.316 3.6069-6.8619 9.0612-8.7093 2.6392-0.79175 4.3107 0.17595 1.6715 0.87973 2.1993 2.5512 0.70378 2.2873-0.43986 4.7505-1.0557 2.4632-3.7828 3.5189-1.4955 0.43986-3.167 0.26391-1.5835-0.17594-2.9911-0.52783-1.3196-0.43987-1.9354-0.70378-2.9031 5.5423-2.1993 10.381 0.87973 4.4866 5.9821 4.1347 11.788-0.70378 24.017-18.122 0.52784-0.61581 1.1436-0.70378 0.70378-0.17595 1.3196 0.26391 0.61581 0.43987 0.70378 1.1436 0.17594 0.70378-0.26392 1.3196-4.2227 6.422-10.909 12.58-6.6859 6.0701-15.747 7.0378-0.43986 0-0.87973 0zm-1.1436-21.113q1.2316 0.43987 2.6392 0.70378 1.4076 0.17595 2.2873 0 1.3196-0.52783 1.8474-1.6715 0.52784-1.2316 0.17594-2.1113 0-0.17594-0.17594-0.35189-0.17595-0.26392-0.61581-0.35189-0.43986-0.088-1.3196 0.17594-2.7272 0.9677-4.8385 3.6069z"/><path d="m61.952 242.28q-0.87973 0-1.5835-0.26392-0.70378-0.26391-1.4955-1.3196-0.79175-1.1436-0.79175-3.5189 0.35189-5.5423 4.7505-12.58 4.3107-7.1258 10.293-9.589 2.0234-0.79176 4.6626-0.35189 2.6392 0.35189 5.4543 3.343 1.7595-2.2873 2.8151-3.7828 1.0557-1.4955 1.1436-1.4955 0.35189-0.61581 0.9677-0.70378 0.70378-0.17595 1.3196 0.17594 0.61581 0.35189 0.79175 0.9677 0.17595 0.61581-0.08797 1.2316-3.9588 9.589-4.2227 14.428-0.17594 4.8385 1.6715 5.8062 2.6392 1.4955 8.7093-2.1993 6.1581-3.7828 13.372-12.492 0.43986-0.61581 1.1436-0.70378 0.70379-0.088 1.3196 0.43986 0.52784 0.43986 0.61581 1.1436 0.088 0.70378-0.35189 1.3196-13.284 15.923-23.137 16.451-2.0234 0-3.5189-0.9677-2.0234-0.9677-2.9911-4.2227-0.9677-3.255 0.52784-9.765-4.3986 5.6302-9.3251 10.733-8.0055 8.0055-12.052 7.9175zm-0.08797-3.5189t0.35189 0q0.26392 0 0.9677-0.26392 0.70378-0.35189 1.8474-1.0557 1.0557-0.70379 2.6392-2.0234 1.5835-1.4076 3.7828-3.6069 5.1024-5.1904 9.589-10.997-0.17594-0.17594-0.35189-0.35189-2.5512-2.9911-5.6302-2.3753-3.9588 1.0557-7.5656 5.8942-3.6069 4.7505-5.2784 10.029-0.70378 2.4632-0.61581 3.6069 0.08797 1.0557 0.26392 1.1436z"/><path d="m102.6 244.48q-0.43986 0-0.79175-0.17595-0.61581-0.35189-0.87973-0.9677t0-1.3196q0.43987-0.9677 3.4309-8.0055 2.9031-7.1258 7.3897-17.595 0 0 0-0.088 5.9821-13.988 12.316-28.063 6.422-14.076 10.733-21.905 4.2227-7.5656 7.1258-7.1258 0.43986 0 1.1436 0.43987 0.79176 0.35189 1.3196 1.5835 1.6715 5.1904-1.6715 12.932-3.255 7.7416-7.8296 14.867-6.1581 9.501-12.404 18.298-6.1581 8.7093-7.5656 10.557-1.0557 2.4632-2.0234 4.7505 2.7272-3.6069 5.1024-5.7182 3.5189-2.9031 5.8942-3.343 2.4632-0.52784 3.8708 0.088 3.167 1.3196 3.6069 5.7182 0.43986 4.6626-2.4632 10.293-2.9031 5.5423-9.0612 9.765-4.2227 2.3753-8.0055 1.6715-3.7828-0.70378-5.4543-1.7595-2.1114 3.8708-2.2873 4.1347-0.61581 0.9677-1.4955 0.9677zm5.5423-8.0935q1.3196 0.70378 4.0467 1.2316 2.8151 0.52784 5.7182-1.0557 5.2784-3.6948 7.7416-8.3574 2.5512-4.7505 2.1993-8.4454 0-0.52783-0.3519-1.4076-0.26391-0.9677-1.0557-1.4076-2.1113-0.70378-6.1581 2.6392-2.8151 2.5512-6.1581 7.3897-3.255 4.7505-5.9821 9.4131zm33.166-73.281q-0.87973 0.61581-3.4309 5.0144-6.422 11.876-16.187 34.221 5.2784-7.4777 10.205-15.219 10.733-17.067 9.4131-24.017z"/><path d="m134.35 262.77q-0.61581 0-1.1436-0.43986-0.43986-0.26392-0.9677-1.0557-0.52783-0.87973-0.79175-2.8151-0.35189-2.0234 0-5.7182t1.7594-9.677q2.1114-8.7093 5.8942-19.53l1.5835-4.3107q2.0234-5.3663 4.3986-10.909 7.0378-16.803 11.524-25.512 4.5746-8.7093 7.2138-11.876 2.6392-3.167 4.2227-3.5189 1.3196-0.43986 2.1114-0.088 0.79175 0.35189 1.0557 0.70378 1.8474 1.7594-0.87973 8.7973-2.0234 5.2784-6.0701 13.284-3.9588 7.4777-10.293 16.627-6.334 9.1492-10.117 14.164-4.8385 12.844-7.2138 23.049-0.70379 2.9031-1.0557 5.1904-0.43986 2.1993-0.6158 3.8708-0.17595 1.6715-0.17595 2.9031 0 1.1436 0.088 1.9354 0.088 0.70378 0.26392 1.1436 0.088 0.35189 0.17595 0.52783 0.088 0.088 0.17594 0.088 0.52784 0.52784 0.61581 1.2316 0 0.70378-0.43986 1.3196-0.61581 0.61581-1.3196 0.61581zm34.045-91.58q-0.87972 0.6158-2.4632 2.8151-1.5835 2.1113-4.1347 6.598-5.1024 9.2371-12.492 26.568 7.3017-10.293 11.876-18.65 7.0378-14.428 7.2138-17.331z"/><path d="m158.99 241.93q-7.3017-0.088-8.7973-7.0378-0.96769-5.7182 2.3753-12.316 3.6069-6.8619 9.0612-8.7093 2.6392-0.79175 4.3107 0.17595 1.6715 0.87973 2.1993 2.5512 0.70378 2.2873-0.43987 4.7505-1.0557 2.4632-3.7828 3.5189-1.4955 0.43986-3.167 0.26391-1.5835-0.17594-2.9911-0.52783-1.3196-0.43987-1.9354-0.70378-2.9031 5.5423-2.1993 10.381 0.87972 4.4866 5.9821 4.1347 11.788-0.70378 24.017-18.122 0.52784-0.61581 1.1436-0.70378 0.70378-0.17595 1.3196 0.26391 0.61581 0.43987 0.70378 1.1436 0.17594 0.70378-0.26392 1.3196-4.2227 6.422-10.909 12.58-6.6859 6.0701-15.747 7.0378-0.43987 0-0.87973 0zm-1.1436-21.113q1.2316 0.43987 2.6392 0.70378 1.4076 0.17595 2.2873 0 1.3196-0.52783 1.8474-1.6715 0.52784-1.2316 0.17595-2.1113 0-0.17594-0.17595-0.35189-0.17594-0.26392-0.61581-0.35189-0.43986-0.088-1.3196 0.17594-2.7272 0.9677-4.8385 3.6069z"/></g><defs><linearGradient id="linearGradient17796" x1="17.499" x2="846.5" y1="432" y2="432" gradientUnits="userSpaceOnUse"><stop stop-color="#eb00f2" offset="0"/><stop stop-color="#8300f2" offset="1"/></linearGradient></defs>

<g transform="matrix(.50024 0 0 .50024 120.41 27.504)" stroke-width="1.999">
	<path d="m657.36 500.39c0.32857 0.25287 0.6613 0.5003 0.99804 0.74219l-0.55469-0.2461c7.09 4.6979-14.119 8.3725-18.629 10.061-30.684 13.442-16.055 2.9816-6.0488-17.248 0.20794-0.42523 0.40784-0.85434 0.59961-1.2871 8.45-30.289 10.915-6.7978 23.635 7.9785z" fill="none" stroke="#fff" stroke-width="1.999"/><path d="m272.07 190.67c-8.5233 0.45623-16.651 3.131-19.254 3.9336-1.0032 0.30943-1.993 0.66064-2.9668 1.0527-21.052 8.4734-34.245 22.977-43.498 33.42-0.144 0.16283-0.28658 0.3269-0.42774 0.49219-13.856 16.194-23.628 33.098-32.154 48.412-0.0373 0.0663-0.0744 0.1327-0.11133 0.19922-11.363 20.703-20.495 41.536-28.971 61.654-0.0196 0.0455-0.0392 0.0911-0.0586 0.13672-4.1706 10.009-7.9699 20.031-11.631 30.045-6.874 4.2268-13.805 8.2337-20.857 11.723-2.7833 1.2962-5.1563 2.4361-6.8125 3.1621-9.176 4.0212-18.207 6.8698-26.895 8.3652-8.0091 1.0828-13.344 1.2236-16.186 0.7793-0.14358-0.0425-0.31699-0.0829-0.41016-0.11328-0.025-0.0209-0.07485-0.0571-0.10547-0.082-9.0766-7.6186-21.696-12.578-33.709-12.225-13.392 0.39411-24.943 6.1338-33.246 14.438-8.3035 8.3037-14.044 19.854-14.438 33.246-0.3939 13.392 5.7865 27.577 14.928 36.719 0.19259 0.19286 0.38726 0.38363 0.58398 0.57227 4.3765 4.1908 8.2913 6.9795 11.15 9 0.34748 0.24552 0.69909 0.48514 1.0547 0.71875 8.3874 5.5111 17.521 9.6214 27.09 12.273 3.23 0.89517 5.2371 1.2794 5.9453 1.4492 0.56932 0.13637 1.1417 0.25945 1.7168 0.36914 14.648 2.7966 28.629 2.6339 41.41 1.2324l-2e-3 2e-3c3.7033-0.40586 6.4038-0.85548 8.1328-1.0859 0.35816-0.0476 0.71562-0.10033 1.0723-0.1582 1.7215-0.28008 3.3829-0.68859 5.084-1.0137-0.03658 0.17459-0.08461 0.35082-0.12109 0.52539-0.03846 0.18201-0.07557 0.36431-0.11133 0.54687-3.6826 19.026-6.7948 38.953-7.959 59.773-0.23221 4.1521-0.2873 7.5906-0.38672 10.307-0.0091 0.25383-0.01559 0.50775-0.01953 0.76172-0.2084 12.725 0.4076 26.494 3.3223 40.916 1.462 7.2357 2.9444 11.723 4.5762 16.918 0.22816 0.72616 0.47828 1.4452 0.75 2.1562 4.2246 11.058 11.168 28.558 30.287 41.266l0.01 8e-3c9.0223 5.6896 18.566 8.9745 26.426 10.166 3e-3 4.1e-4 3e-3 2e-3 6e-3 2e-3 19.401 2.8533 34.594-3.1531 45.148-8.3457 3.7562-1.848 5.9717-3.2202 6.8594-3.7051 0.39725-0.2175 0.79054-0.44215 1.1797-0.67383 16.696-9.9171 28.741-22.028 38.758-32.635 2.2488 4.188 4.7636 8.3668 7.9473 12.439 2.4668 3.1557 3.9597 4.6427 4.0762 4.7773 0.54833 0.63405 1.1176 1.2496 1.707 1.8457 7.8959 7.9803 19.092 15.887 33.66 19.176l0.0195 4e-3c6.9385 1.5624 15.692 1.5135 18.238 1.4551 1.219-0.0275 2.4359-0.11423 3.6465-0.25976 15.851-1.9108 29.322-8.9031 39.584-17.225 1.6805-1.3339 3.2669-2.7778 4.836-4.2383 0.37592-0.33308 0.74513-0.67365 1.1074-1.0215 8.4343-8.0958 14.322-16.551 19.031-24.418 3.3371 6.2124 8.0129 12.94 15.52 19.197l4e-3 4e-3c4.2512 3.5424 4.3193 3.2809 5.9258 4.3184 5.3924 3.5543 10.926 5.7518 14.055 6.7695 0.0299 0.01 0.0599 0.0196 0.0898 0.0293 15.952 5.1101 31.6 2.5756 43.639-2.7461h2e-3c3.1906-1.3492 5.6334-2.8261 8.1133-4.2637 16.571-10.167 25.041-23.87 30.604-33.076 0.15666-0.26001 0.31017-0.52191 0.4605-0.78563 0.77993-1.364 1.3317-2.6607 2.0625-4.0137l0.33789 0.50976 2e-3 4e-3c2.6568 3.4615 4.2435 5.0093 4.2676 5.0371 0.58397 0.67568 1.1918 1.3304 1.8223 1.9629 10.363 10.401 23.536 17.432 37.268 20.605 3.9234 0.9088 6.0313 1.1304 6.1308 1.1484 0.56688 0.10288 1.136 0.19275 1.707 0.26953 18.339 2.4567 33.232-1.3108 44.004-4.082 0.30112-0.077 0.60127-0.15775 0.90039-0.24219 13.857-3.9325 26.056-8.7643 37.064-12.971l0.0644-0.0254c12.896-4.9547 25.611-9.848 38.215-14.492 0.0815-0.0303 0.16287-0.0609 0.24414-0.0918 12.139-4.5686 24.972-8.3929 38.363-11.824 12.808-3.221 26.094-5.5611 39.748-7.2441 7.7131-0.84331 15.245-1.174 22.504-0.89648l0.01 2e-3c4.7205 0.17913 5.4474 0.33491 10.674 0.85156 8.2329 1.0282 15.457 2.5896 21.338 4.7734 5.4e-4 2e-4 1e-3 -2e-4 2e-3 0 0.15254 0.0573 1.5221 0.6314 2.9375 1.2168 1.3226 0.61696 2.6446 1.2327 3.9629 1.8476 0.0299 0.0137 0.0598 0.0274 0.0898 0.041 11.731 5.4346 27.177 6.3533 39.615 1.3711 12.438-4.9822 21.304-14.349 26.24-25.004 4.9358-10.655 6.3473-23.475 2.1055-36.184-4.2418-12.708-14.929-23.898-26.66-29.332-0.0306-7e-3 2.9986 1.5198-0.0918-0.0215-1.9248-0.95292-4.0557-1.8878-5.7617-2.6719-0.57499-0.26461-1.1566-0.51469-1.7441-0.75-1.3904-0.55668-3.8172-1.6347-7.3887-2.9394-3.3342-1.2179-6.6564-2.2644-9.9688-3.2402 2.0556-2.6696 3.9744-5.0318 6.0977-7.959 0.0536-0.0734 0.10704-0.14694 0.16016-0.2207 3.6918-5.1683 7.5142-10.774 11.205-16.963 0.0663-0.11099 0.13209-0.22232 0.19727-0.33398 3.0159-5.1776 6.8209-11.899 9.8242-20.74 0.0729-0.21355 0.14385-0.42775 0.21289-0.64258 1.8963-5.9299 4.0407-13.588 4.5723-23.068 0.0201-0.35784 0.035-0.71595 0.0449-1.0742 0.22132-8.0539-0.42041-18.365-4.6641-29.381-0.0627-0.1619-0.12648-0.32336-0.1914-0.48437-2.7384-6.8251-6.9511-15.918-15.156-24.686-0.1311-0.13968-0.26327-0.27836-0.39649-0.41602-6.211-6.4375-14.787-13.676-26.516-18.455-0.36813-0.15039-0.73862-0.29494-1.1113-0.4336-7.8514-2.913-17.682-5.4367-29.029-5.1465-1.6378 0.0419-3.284 0.14208-4.9238 0.30273-0.22482 0.0221-0.44943 0.0462-0.67382 0.0723-8.8673 1.03-19.554 3.3198-30.379 9.1719-0.11294 0.0606-0.22557 0.12183-0.33789 0.1836-8.0177 4.4408-16.505 10.381-24.102 18.662-0.0431 0.0474-0.0861 0.0949-0.12891 0.14257-2.7813 3.0634-5.5937 6.4875-8.3555 10.182-4.9739-1.7685-10.665-3.2277-17.203-3.7539-0.59936-0.0482-1.1998-0.0821-1.8008-0.10157-0.26254-9e-3 -1.6633-0.11328-4.209-0.11328-0.32881-4e-4 -0.65762 3e-3 -0.98633 0.0117-13.794 0.36116-27.894 5.8034-38.426 15.285-2.8596 2.7224-4.9238 4.9679-6.707 7.2324l-8e-3 8e-3c-7.1264 9.1144-10.395 18.749-11.9 27.283-2.0474-3.8356-4.5304-7.5729-7.623-11.066l-6e-3 -6e-3c-3.5251-3.8745-4.6772-4.7706-7.8379-7.3516-13.689-10.429-33.055-14.63-50.07-10.447l-0.0176 6e-3c-4.7041 1.1557-6.7542 2.0824-10.084 3.4375-15.707 6.9583-24.903 17.122-31.006 23.619-0.0621 0.0662-0.12394 0.13259-0.18555 0.19922-7.5688 8.1752-13.058 16.586-17.773 24.652-5.4345-2.0385-12.107-3.3279-19.447-3.4824-4.6082-0.35274-10.246 0.49192-15.459 2.6055-3.18 1.0558-6.0394 2.449-8.752 3.9727-3.2944-8.2292-8.6161-17.355-17.988-24.172l-4e-3 -2e-3c-9.152-5.8397-15.048-8.2074-22.85-9.5371-16.289-2.7125-28.768 2.3842-36.516 6.2793-0.45331 0.22789-0.90197 0.46492-1.3457 0.71093-6.4963 3.6019-11.972 7.4593-16.785 11.088-8.141-6.7855-18.455-12.409-30.672-14.682h-2e-3c-3.8724-0.7439-6.44-0.86908-9.6152-1.0508-27.159-0.94643-39.306 5.7563-49.637 12.745-5.2578 3.5261-12.225 10.431-14.281 12.514-0.55172 0.55869-1.0858 1.1345-1.6016 1.7266-5.561 6.3867-9.2918 11.807-12.135 15.488-0.0648 0.0844-0.12927 0.169-0.19336 0.25391-6.1536 8.1082-12.382 16.157-18.686 24.146-9.0144 11.42-18.179 22.814-27.428 34.23-5.8894 7.2502-11.635 14.229-17.352 21.018 1.1472-11.235 3.0238-22.825 5.3144-34.736 4.7497-22.728 10.192-44.852 17.02-66.127l0.0137-0.043c1.1249-3.5204 2.3113-7.0019 3.4648-10.504 0.24547-0.1799 0.59678-0.4351 0.83593-0.60937 0.16241-0.11785 0.32387-0.23699 0.48438-0.35742 16.967-12.783 32.948-26.78 47.852-41.793l2e-3 -2e-3c3.165-3.1879 5.8539-6.065 8.2012-8.498 0.13852-0.14409 0.2759-0.28928 0.41211-0.43555 12.816-13.714 25.158-28.654 36.072-45.248l2e-3 -2e-3c2.2287-3.3881 3.9184-6.2155 5.2637-8.3555 0.2001-0.31802 0.39543-0.63902 0.58593-0.96289 7.1717-12.203 15.034-26.78 19.605-44.768v-2e-3c1.0476-4.1219 1.4479-6.7483 1.6621-7.7734 0.16664-0.79796 0.30734-1.6011 0.42188-2.4082 1.7459-12.29 3.1609-30.594-7.459-49.75v-2e-3c-5.3166-8.9619-11.5-15.597-17.58-20.045l-4e-3 -2e-3c-12.182-8.8157-26.79-12.013-39.414-11.338h-4e-3z" fill="none" stroke="#fff" stroke-width="1.999"/><path d="m274.09 228.29c-4.3156 0.231-6.0679 1.0508-10.166 2.3144-12.352 4.9718-20.723 13.7-29.367 23.455-11.02 12.879-19.648 27.491-27.863 42.246-10.315 18.793-18.964 38.415-27.279 58.152-5.5663 13.359-10.641 26.908-15.412 40.562-11.333 7.5939-23.102 14.544-35.334 20.584-2.7359 1.2665-5.4461 2.5885-8.207 3.7988-11.588 5.0786-23.695 9.0194-36.189 11.113-9.6738 1.351-19.5 2.3428-29.199 0.57617-4.6273-1.0269-9.1858-2.3973-13.186-5.0293-1.3338-0.9179-2.5238-2.002-3.8301-2.9434 0.0192 0.0172 0.042 0.0399 0.0527 0.0664l-2e-3 6e-3c-11.45-11.449-27.64 4.742-16.191 16.191 2.1092 2.0197 4.4554 3.7611 6.8359 5.4434 5.0559 3.3221 10.632 5.8371 16.463 7.4531 1.5418 0.4273 3.11 0.74614 4.666 1.1192 9.9609 1.9018 20.18 1.8918 30.236 0.78906 2.4271-0.266 4.8394-0.65592 7.2598-0.97852 14.417-2.3456 28.405-6.8028 41.783-12.619 3.0629-1.3323 6.0678-2.7934 9.1016-4.1894 4.9281-2.4193 9.7788-4.9889 14.57-7.666-7.0904 22.632-12.712 45.674-17.562 68.881-3.4975 18.07-6.3035 36.323-7.332 54.717-0.1785 3.1917-0.23466 6.3884-0.35156 9.582-0.18 10.991 0.39818 22.04 2.5801 32.836 1.2291 6.0834 1.7688 7.2862 3.5918 13.09 3.3687 8.8173 7.8154 17.931 15.947 23.336 1.6203 1.0762 3.4401 1.8181 5.1602 2.7266 1.9636 0.5167 3.8838 1.2542 5.8926 1.5488 7.9821 1.1779 15.977-1.3957 23.049-4.875 1.8506-0.9105 3.6215-1.9761 5.4316-2.9648 12.37-7.3475 22.574-17.517 32.352-27.928 11.177-12.305 21.658-25.217 32.135-38.115 7.7273-9.5381 15.41-19.113 23.045-28.725-1.9709 9.1339-3.3668 18.375-4.2852 27.68-0.6469 7.7662-0.71382 15.595 0.20898 23.344 0.5816 4.8835 0.93147 5.9888 1.9512 10.74 2.0166 7.8931 5.1743 15.538 10.223 21.996 0.9036 1.1563 1.9218 2.2176 2.8828 3.3281 4.2095 4.2545 9.2671 7.5905 15.174 8.9238 3.9959 0.8998 5.0693 0.63732 9.0977 0.54492 7.5986-0.916 14.461-4.2955 20.367-9.0859 1.2384-1.0039 2.3868-2.1167 3.5801-3.1738 7.8292-7.515 13.315-16.898 18.336-26.408 3.4036-6.8021 6.2991-13.867 8.4043-21.182 1.4163-4.9211 1.5973-6.2973 2.6289-11.312 2.1474-11.435 2.3256-23.075 1.9199-34.662-0.11501-2.8116-0.34251-5.6099-0.65821-8.3945 1.1078-0.5953 2.2108-1.1993 3.3066-1.8145 7.3667-4.3381 14.295-9.3571 21.141-14.463 5.3294-4.0108 10.572-8.1316 15.879-12.17 1.1985-0.881 2.4008-1.7627 3.6113-2.6289-0.172 1.7733-0.39012 3.5441-0.60742 5.3066-1.0358 7.8298-2.138 15.649-3.0996 23.488-1.2273 9.2745-1.9815 18.597-2.3965 27.941-0.492 9.6427-2e-3 19.281 0.98828 28.873 0.8991 8.3809 2.7723 16.588 5.3965 24.586 2.166 5.8611 5.0085 11.77 9.9141 15.859 1.0797 0.8997 2.3002 1.616 3.4512 2.4238 1.3318 0.5854 2.6088 1.3102 3.9941 1.7578 5.6288 1.8032 11.582 1.032 16.912-1.3242 1.2556-0.5551 2.4298-1.279 3.6445-1.918 8.0107-4.9148 13.298-12.567 18.061-20.449 4.9818-8.7126 9.0275-17.915 12.869-27.174 3.6587-8.8945 6.7295-18.014 9.543-27.207 2.1076-6.8837 3.8958-13.858 5.625-20.844 0.2852-1.0961 0.55583-2.1971 0.82813-3.2988 2.0023 1.3879 4.0398 2.722 6.1484 3.9551 5.6355 3.2408 11.874 4.8913 18.232 5.9551 1.4165 0.2149 2.8331 0.34274 4.25 0.43164-0.6867 3.7418-1.3109 7.4954-1.8262 11.268-0.9531 8.0698-1.2369 16.265-0.14649 24.338 0.2074 1.5339 0.51634 3.0517 0.77344 4.5781 1.5343 7.2496 4.1527 14.332 8.7012 20.26 0.8977 1.1696 1.927 2.2322 2.8906 3.3476 5.2609 5.2802 11.816 8.8177 19.07 10.492 1.4344 0.3337 2.8988 0.5171 4.3476 0.7793 10.044 1.3455 19.935-0.73616 29.615-3.2266 11.534-3.2734 22.714-7.6443 33.904-11.92 12.879-4.9482 25.754-9.9057 38.699-14.676 13.854-5.2142 28.041-9.4166 42.371-13.086 14.7-3.7006 29.638-6.3104 44.674-8.1543 9.3857-1.0369 18.842-1.4722 28.281-1.1113 5.8421 0.2217 7.7084 0.48913 13.514 1.0527 10.255 1.2579 20.478 3.2966 30.188 6.9024 1.6863 0.6273 3.3314 1.3612 4.9961 2.041 1.5717 0.7332 3.1436 1.4662 4.7149 2.1992 14.692 6.8066 24.317-13.971 9.625-20.777v2e-3c-1.9212-0.885-3.8425-1.7703-5.7637-2.6543-2.1036-0.8422-4.1842-1.7498-6.3125-2.5273-11.358-4.1489-23.285-6.5489-35.266-7.9785-6.6415-0.6263-8.6274-0.91669-15.322-1.1543-10.5-0.3741-21.02 0.11815-31.459 1.2812-16.006 1.9827-31.912 4.7411-47.559 8.6973-15.082 3.8732-30.019 8.2966-44.602 13.783-13.031 4.8032-25.992 9.7897-38.955 14.771-10.398 3.9728-20.782 8.0466-31.484 11.145-6.551 1.7183-13.25 3.4001-20.082 2.8066-3.6923-0.5294-7.2674-1.3908-10.127-3.9492-3.4362-3.5192-5.0588-7.4876-6.1035-12.273-1.321-7.2487-1.4852-14.597-0.49414-21.912 0.7738-5.7615 1.792-11.482 3.0664-17.148 5.966-1.7508 11.655-4.3039 17.178-7.1914 7.5268-4.0027 14.111-9.3707 20.178-15.303 5.7855-5.8116 10.127-12.716 13.711-20.037 2.3328-5.2581 4.2683-10.774 4.8926-16.525 0.118-1.0865 0.13763-2.1811 0.20703-3.2715-7e-3 -5.813-1.6348-11.484-5.5488-15.902-0.7526-0.8504-1.6409-1.571-2.4609-2.3555-5.3024-4.0397-11.742-5.4285-18.244-3.8301-1.3111 0.323-2.557 0.86804-3.8359 1.3027-7.4852 3.316-13.286 9.0914-18.805 14.967-6.1544 6.6475-11.057 14.24-15.412 22.145-4.361 8.2652-7.4554 17.08-10.197 25.988-2.0708 0.1007-4.1481 0.0553-6.2266-0.22852-3.6027-0.5288-7.1533-1.383-10.369-3.1562-3.0397-1.7346-5.8517-3.795-8.6367-5.9102-4.1406-2.9251-8.2948-5.6496-13.602-5.5898-1.3338 0.2272-2.718 0.25304-4.002 0.68164-5.0796 1.6815-8.3154 5.8368-10.357 10.557-1.7395 4.5225-2.9738 9.2009-4.0859 13.914-1.6293 6.5858-3.3087 13.162-5.2949 19.652-2.5919 8.4925-5.4262 16.915-8.7988 25.133-3.403 8.224-6.9807 16.399-11.354 24.162-2.6393 4.4462-5.3599 9.0136-9.5332 12.207-0.0158 0.01-1.9192 1.2422-1.918 1.3027 2e-3 0.2476 0.83086 0.50921 0.72656 0.85351-0.1902 0.618-1.1932-0.78906-1.2109-0.78906-1.2153-1.6018-1.9575-3.502-2.6699-5.3613-2.1608-6.4089-3.595-13.02-4.3535-19.744-0.8909-8.4678-1.3223-16.975-0.88672-25.49 0.3815-8.751 1.098-17.478 2.248-26.164 0.96-7.8381 2.0699-15.657 3.0996-23.486 0.737-6.043 1.4748-12.153 0.80078-18.24-0.885-5.4875-2.4452-10.531-7.1953-13.986-1.0594-0.7704-2.2892-1.2731-3.4336-1.9082-1.1496-0.3121-2.2728-0.74045-3.4473-0.93555-4.6714-0.7779-9.2814 0.70555-13.402 2.7774-4.5372 2.5157-8.7887 5.4747-12.92 8.6094-5.2486 3.9955-10.437 8.0687-15.705 12.039-5.1158 3.8184-10.292 7.57-15.686 10.986-2.1157-6.3204-4.7647-12.539-8.709-17.949-0.8211-1.1258-1.749-2.1712-2.623-3.2559-4.5514-4.9692-10.277-8.6879-16.975-9.9336-1.2513-0.2337-2.5301-0.28769-3.7949-0.42969-6.0638-0.172-11.886 1.5062-16.998 4.7578-0.9436 0.6004-1.8235 1.2968-2.7344 1.9453-1.1456 0.9266-2.2291 1.9215-3.252 2.9727-0.585-0.2802-1.1794-0.53624-1.793-0.74024-4.3361-1.4405-8.5852 2.4217-11.26 5.1309-3.8259 4.3939-7.1719 9.1699-10.73 13.777-6.2959 8.2958-12.669 16.532-19.119 24.707-9.1593 11.604-18.425 23.123-27.73 34.609-10.136 12.478-20.269 24.971-31.064 36.891-8.1322 8.6896-16.539 17.279-26.746 23.561-4.2639 2.413-8.5967 4.8042-13.494 5.6152-0.3274-0.0598-0.67607-0.0574-0.98437-0.17774-3.9758-1.6057-6.5717-8.6008-8.0879-12.143-1.4307-4.3927-1.8643-5.3412-2.8379-10.002-1.932-9.243-2.396-18.722-2.2637-28.143 0.1013-2.9061 0.14443-5.815 0.30273-8.7188 0.9509-17.386 3.6197-34.636 6.9121-51.717 4.9414-23.682 10.699-47.19 18.096-70.24 2.3942-7.4924 4.8548-14.964 7.3926-22.41 0.4475-0.3131 0.90176-0.6187 1.3477-0.9336 3.1209-2.2036 6.1743-4.5003 9.2617-6.75 15.492-11.672 30.122-24.482 43.787-38.248 2.6473-2.6663 5.2156-5.4094 7.8242-8.1133 11.725-12.547 22.678-25.869 32.123-40.229 1.6671-2.5343 3.2311-5.1368 4.8457-7.7051 6.4621-10.996 12.412-22.525 15.572-34.959 0.5201-2.0461 0.86477-4.1334 1.2969-6.2012 1.2444-8.7599 1.3172-18.203-3.1074-26.184-0.8268-1.4913-1.9247-2.8157-2.8867-4.2227-1.2778-1.1909-2.4192-2.5482-3.834-3.5723-4.4905-3.2497-9.8326-4.5294-15.314-4.2363zm0.88867 21.621c1.2857 0.0605 1.4432 1.8664 1.6836 2.8418 0.7469 3.0274 0.52506 6.1593 0.13086 9.2168-0.2763 1.4381-0.48538 2.8927-0.83008 4.3164-2.5206 10.419-7.6638 20.003-12.99 29.211-3.9949 6.3814-4.7961 7.8688-9.2324 14.096-7.5569 10.606-15.93 20.616-24.826 30.119-2.4553 2.5501-4.8737 5.1343-7.3652 7.6484-7.4615 7.5294-15.264 14.717-23.318 21.609 0.7585-1.8751 1.5131-3.7528 2.291-5.6211 7.9885-18.973 16.287-37.84 26.189-55.91 7.4039-13.326 15.131-26.56 25.025-38.232 5.6612-6.4546 11.727-12.419 19.422-17.371 3.819-1.9241 2.8248-1.4336 3.8203-1.9238zm510.8 130.72c-0.73467 0.0188-1.4716 0.0641-2.2129 0.13672-5.8587 0.6805-11.578 2.0608-16.809 4.8887-5.4012 2.9916-10.398 6.5996-14.592 11.172-3.9199 4.3175-7.5321 8.8991-10.508 13.93-2.8574 4.8455-5.5411 9.7892-7.8086 14.943-1.4183 3.2121-2.8131 6.4352-4.2383 9.6445-2.0918-1.9105-4.1922-3.8129-6.373-5.623-3.8171-3.158-7.6706-6.3056-11.953-8.8242-4.8622-2.7124-9.9676-4.9613-15.594-5.4141-0.9962-0.0323-1.9923-0.0937-2.9883-0.0937-5.3127 0.1391-10.252 2.0641-14.203 5.6211-0.7468 0.8151-1.561 1.5766-2.2422 2.4473-3.1409 4.0171-4.5456 8.9934-4.9648 14.002-0.173 6.3559 0.71847 12.218 2.9805 18.193 2.7872 7.2051 6.325 14.08 11.447 19.936h2e-3c5.7463 6.3406 11.907 11.678 19.074 16.381 7.0417 4.6169 14.255 9.0432 22.146 12.078 5.0948 1.903 10.254 3.62 15.568 4.8106 1.5157 0.3677 3.049 0.65356 4.5312 1.1309l2e-3 -2e-3c15.569 4.4483 21.86-17.57 6.291-22.018-1.6813-0.5329-3.6327-0.92908-5.4199-1.3633-4.4137-0.9788-8.6963-2.3993-12.92-3.9961-6.2846-2.4739-12.01-6.0818-17.627-9.7793-5.3793-3.5681-10.328-7.6817-14.594-12.523-3.2114-3.7808-5.3836-8.2058-7.1074-12.818-1.0344-2.9322-1.7551-5.9641-1.4941-9.082-0.0107-0.0251-6e-3 -0.0645-0.0117-0.0937 0.0723 6e-3 0.14744 7e-3 0.21094 0.0312 2.0309 0.436 3.8483 1.4437 5.625 2.4785 3.0763 1.905 5.8582 4.2381 8.6387 6.541 2.675 2.2289 5.2203 4.6026 7.791 6.9492 2.2458 2.0821 4.5149 4.1234 6.9961 5.9199 3.559 2.3008 7.7514 3.372 11.965 2.3008 3.2226-0.8181 3.9454-1.7103 6.4453-3.5781 3.3799-3.2059 5.4628-7.376 7.4531-11.516 1.8917-4.1376 3.669-8.324 5.5078-12.486 1.907-4.3321 4.1717-8.4847 6.5801-12.555 2.1863-3.6565 4.8095-7.0014 7.6934-10.127 2.4965-2.6404 5.3921-4.8196 8.6094-6.4922 2.6047-1.3661 5.4347-1.986 8.3379-2.248 2.2708-0.1466 4.4234 0.39599 6.4941 1.2715 2.0255 0.9735 3.7136 2.4242 5.2031 4.082 1.4233 1.6342 2.2806 3.6285 3.0391 5.6328 0.6268 1.8092 0.70198 3.6703 0.58398 5.5586-0.2513 2.5673-0.93644 5.0584-1.7441 7.498-1.2002 3.3019-2.9169 6.377-4.6914 9.3965-2.5942 4.3243-5.4266 8.4984-8.3613 12.598-3.8906 5.3503-8.0056 10.535-12.086 15.742-9.9883 12.743 8.0348 26.87 18.023 14.125 4.288-5.4707 8.6073-10.919 12.689-16.547 3.3369-4.6714 6.5624-9.427 9.5039-14.359 2.5919-4.4497 5.0453-9.0048 6.707-13.896 1.4247-4.4552 2.5788-9.0108 2.8418-13.701 0.1387-5.0472-0.32875-10.047-2.1602-14.801-1.8883-4.7064-4.2008-9.2324-7.6992-12.971-3.9237-4.0668-8.3347-7.5713-13.619-9.7246-4.8352-1.7939-9.8183-2.9382-14.961-2.8066zm-90.914 56.047c-2e-3 0.0675-0.0582 0.23775-0.19922 0.55078 0.0693 0.1106-0.20023 0.36564-0.45703 0.58984 0.17707-0.61582 0.66217-1.3431 0.65625-1.1406zm-113.55 22.076c-0.4233 2.9093-1.4781 5.7092-2.6426 8.4121-2.3716 4.9979-5.2833 9.7018-9.1621 13.689-3.7034 3.6868-7.717 7.0271-12.152 9.7793 0.8634-2.0173 1.793-4.0082 2.8047-5.9629 3.3983-6.2432 7.2292-12.243 12.051-17.504 2.8165-3.0245 5.7019-6.0387 9.1016-8.4141zm-253.63 24.041c2.0269-0.2159 3.6222 0.73491 5.0352 2.1621 3.6561 4.1259 5.8011 9.2491 7.4648 14.457 0.1631 0.5668 0.28721 1.142 0.44141 1.7109-3.5756 0.7657-7.2082 1.327-10.875 1.002-2.1084-0.2812-4.1279-0.73151-5.8457-2.0703-1.4749-1.2446-2.6969-2.7246-3.4512-4.5195-0.6059-1.6447-0.80451-3.2852-0.32421-5.0059h-2e-3c0.6174-2.0854 1.6784-3.9597 3.3106-5.4297 1.2572-1.0403 2.6031-2.0127 4.2461-2.3066zm-22.242 31.045c0.88499 0.9986 1.8176 1.9767 2.8164 2.9414 4.1208 3.5649 8.9918 6.0579 14.301 7.2988 1.0969 0.2562 2.2153 0.40779 3.3223 0.61719 6.1906 0.8895 12.364 0.22051 18.445-0.96289 0.0119 0.224 0.0423 0.44582 0.0527 0.66992 0.3654 9.7833 0.27208 19.614-1.4785 29.281-0.7936 3.9738-0.94221 5.1214-2.0371 9.0156-1.6893 6.0034-4.0564 11.795-6.8242 17.377-3.7363 7.1395-7.7078 14.279-13.41 20.066-2.8873 2.6857-5.9432 5.3144-9.8301 6.3906-2.6483 0.545-3.8355 0.0433-5.9277-1.8106-4.086-4.3568-6.3693-9.227-7.8535-15.012-0.7762-3.4529-1.0662-4.3687-1.5176-7.9336-0.7989-6.3135-0.7388-12.7-0.2207-19.033 1.0403-10.838 2.8368-21.577 5.5273-32.135 1.4381-5.6203 2.9671-11.216 4.6348-16.771z" fill="url(#linearGradient17796)"/>
	
	
</g>
<g transform="translate(-33.532 -1.6706)" fill="#8300f2" stroke-width="1.3737" aria-label="forms"><path d="m469.68 417.87q-0.90146 0-1.3522-0.77268-0.19317-0.19317-0.32195-0.70829-0.12878-0.57951 0.0644-1.8029 0.12878-1.2878 0.83707-3.7346 0.70829-2.5112 2.1893-6.6322 3.6058-9.9161 9.4654-22.858 5.5376-12.234 11.526-23.18 6.0527-11.011 9.9805-14.423 1.3522-0.96585 2.2537-0.96585 0.90146-0.0644 1.3522 0.32195 1.8029 1.0946 0.83707 5.0868-1.6098 6.3746-5.7951 12.363-4.1854 5.9883-8.6927 10.56-4.4429 4.5073-6.8898 6.5678-0.90146 1.8673-1.8029 3.799-2.318 5.0868-4.3785 9.9805 6.8898-1.0946 12.234-4.6361 5.3444-3.5414 10.753-9.401 0.38634-0.38634 0.90146-0.38634t0.90146 0.32195q0.38635 0.38634 0.38635 0.90147 0.0644 0.51512-0.32196 0.96585-5.6663 6.0527-11.526 9.9161-5.7951 3.799-13.329 4.8936 1.9961 6.1814-0.57951 13.2-2.5756 6.9541-7.5336 10.238-0.57951 0.38634-1.159 0.38634zm7.2117-21.506q-1.6742 4.121-2.962 7.6624-3.0907 8.5639-3.2839 10.431 3.6058-3.0907 5.4088-8.3063 1.7385-5.28 0.83707-9.7873zm27.366-50.933q-0.19317 0.12878-0.57952 0.38634-5.0224 4.3141-15.518 25.498 4.5717-4.3785 9.3366-10.624 4.7649-6.3102 6.5034-13.071 0.38634-1.7385 0.25756-2.1893z"/><path d="m499.24 396.87q-2.0605 0.0644-2.962-0.96586-1.6741-1.8029-1.481-5.1512t1.6098-6.5678q1.3522-2.962 3.0907-4.6361 1.7385-1.7385 3.0263-2.4468t1.481-0.70829q0.51512-0.12878 0.96585 0.12878 0.45073 0.19317 0.6439 0.70829t-0.0644 0.96586q-0.19317 0.45073-0.70829 0.6439-0.12878 0-1.159 0.57951-1.0302 0.57951-2.3824 1.9961-1.4166 1.3522-2.5112 3.799-1.2878 2.962-1.4166 5.4732-0.12878 2.5112 0.70829 3.3483 0.45073 0.38634 1.159 0.25756 0.70829-0.12878 1.3522-0.45073 4.5717-2.4468 6.439-8.2419 1.5454-5.4732-0.57951-9.6585l-0.19317-0.38634q-0.25756-0.51512-0.12878-0.96585 0.19317-0.51512 0.6439-0.77268t0.90146-0.0644q0.51512 0.12878 0.83708 0.57951 0.0644 0.12878 0.19317 0.32195 0.32195 0.6439 1.2878 1.8029 1.0302 1.0946 3.3483 1.9317 2.318 0.77268 4.958-0.57952 0.51512-0.32195 0.96585-0.19317 0.51512 0.0644 0.83707 0.51513 0.32195 0.51512 0.19317 1.0302-0.12878 0.45073-0.57951 0.77268-3.6058 1.9961-6.1814 1.159-2.5756-0.83707-3.3483-1.2878 0.32195 3.1551-0.6439 6.5034-2.1893 6.8898-7.7912 9.7873-1.481 0.7083-2.5112 0.77269z"/><path d="m520.55 372.08 0.19317-0.38634q0.25756-0.38634 0.6439-0.57951 0.45074-0.19317 0.96586 0t0.70829 0.6439q0.19317 0.32195 0.12878 0.70829v0.12878q-0.0644 0.0644-0.0644 0.12878l-3.1551 8.1776q2.0605-3.1551 3.4127-4.7649 1.3522-1.6741 2.1893-2.2536 0.90147-0.57952 1.5454-0.51513 1.0946-0.0644 1.7385 0.90147l0.0644 0.12878q1.7385 2.8332 3.0907 4.121 1.4166 1.2878 3.4771 0.77268 2.5756-0.77268 3.5415-1.2234 1.0302-0.45073 1.0302-0.45073 1.159-0.51512 1.6098 0.57952 0.51512 1.0302-0.0644 1.481-0.12878 0.12878-1.3522 0.70829-1.159 0.51512-4.0566 1.3522-1.0302 0.32195-1.9317 0.32195-2.5112-0.12878-4.2498-1.8673-1.6741-1.8029-3.0263-4.121-0.51512 0.25756-2.2537 2.5112-1.7385 2.2536-5.2156 8.0488-2.318 4.0566-3.9278 7.1473-1.6741 3.0907-1.7385 3.2839-0.45073 0.70829-1.159 0.70829-0.25756 0-0.51513-0.12878-0.51512-0.19317-0.70829-0.6439-0.19317-0.51513 0-0.96586z"/><path d="m534.01 397.71q-0.38634 0-0.70829-0.19317-0.6439-0.51512-0.57951-1.2234 0-0.70829 0.32195-1.481 0.32195-1.0302 1.0302-2.962 1.2234-3.1551 3.4771-8.5639 1.9961-4.7649 3.5415-8.4351 1.5454-3.6702 1.6741-3.8634 0.19317-0.51512 0.6439-0.70829 0.51512-0.19317 1.0302 0 0.51512 0.25756 0.7083 0.77268 0.19317 0.45073 0 0.96585-3.4127 7.7912-6.2458 14.745 4.121-6.5678 7.3405-10.946 2.3824-3.0263 3.9278-3.6058 1.5454-0.6439 2.3824-0.0644 1.6098 1.0946 0.70829 3.5415-4.0566 9.9805-4.7649 13.715 0.90146-1.0946 1.9961-2.7044 1.0946-1.6098 2.0605-3.1551 2.5112-4.121 4.121-5.9883 1.6741-1.9317 3.0263-1.6098 0.77268 0.25756 1.0946 0.83707 0.38634 0.51512 0.45073 1.0946 0.12878 0.57952 0.12878 0.90147 0.25756 3.4771 0.77268 5.4088 0.57951 1.9317 1.2878 3.1551 0.25756 0.38635 0.45074 0.51513 0.19317 0.12878 0.38634 0.19317 1.481 0 4.0566-2.0605 2.64-2.0605 5.1512-4.6361 2.5756-2.5756 3.9922-4.0566 0.38635-0.38634 0.90147-0.38634 0.51512-0.0644 0.90146 0.32195 0.38634 0.38634 0.38634 0.90147 0.0644 0.51512-0.32195 0.90146-6.0527 6.5034-9.6585 9.2078-3.5415 2.64-5.7307 2.318-0.64391-0.0644-1.4166-0.45073-0.70829-0.38634-1.3522-1.481-0.83707-1.4166-1.481-3.6058-0.57951-2.1893-0.90147-5.9883-0.83707 0.96585-1.9961 2.7044-1.0946 1.6742-2.1249 3.2195-3.8634 6.439-6.0527 7.7268-0.83707 0.38634-1.4166 0.25756-0.51512-0.19317-0.77268-0.45073-0.19317-0.12878-0.45073-0.51513-0.19317-0.45073-0.19317-1.4166 0.0644-1.0302 0.51512-2.8976 0.45073-1.9317 1.5454-5.0224 1.0946-3.1551 3.0263-7.8556-0.83707 0.38634-2.64 2.64-1.6098 2.1249-3.7346 5.4088-2.1249 3.2195-4.1854 6.5678-3.6702 5.8595-5.1512 7.7268-0.57951 0.57951-1.159 0.57951z"/><path d="m572.51 405.37q-0.70829 0-1.2878-0.19317-1.159-0.45073-1.481-1.8673-0.38634-1.8029 1.4166-5.1512 1.8029-3.4127 6.761-7.9844 0.51512-0.51512 1.0946-1.0302-0.12878-3.1551-0.51512-5.8595-0.38634-2.7688-0.6439-4.1854-0.45073-3.2195 1.4166-5.2156 1.8673-2.0605 3.6702-2.7044 0.51512-0.19317 0.96585 0.0644 0.51512 0.19317 0.7083 0.6439 0.19317 0.51512 0 1.0302-0.19318 0.45073-0.7083 0.64391-0.12878 0.0644-0.77268 0.38634-0.57951 0.32195-1.3522 0.96585-0.70829 0.6439-1.159 1.6098-0.45073 0.90146-0.25756 2.1249 0.6439 3.0907 1.0946 8.4351 5.3444-4.3141 9.401-7.0185 4.0566-2.7688 4.3141-2.8976 0.45073-0.25756 0.96585-0.12878 0.51512 0.0644 0.83707 0.51512 0.25756 0.51512 0.12878 1.0302-0.12878 0.45073-0.57951 0.77268-0.32195 0.12878-4.8293 3.2195-4.4429 3.0263-10.045 7.7268 0.12878 4.7649-1.159 8.3063-1.5454 3.5415-3.799 5.1512-2.318 1.6098-4.1854 1.6098zm-0.19317-2.5756q0.90146 0.19317 2.64-0.90146 1.7385-1.159 3.1551-4.2498 0.77268-2.1249 0.90146-5.0224-4.2498 4.121-5.6019 6.761t-1.0946 3.4127z"/></g></svg>
