<?xml version="1.0" encoding="UTF-8" standalone="no"?>
<svg
   class="w-5 h-5"
   viewBox="0 0 32 32"
   fill="#eb00f2"
   version="1.1"
   id="svg866"
   sodipodi:docname="favicon.inkscape.svg"
   width="32"
   height="32"
   inkscape:version="1.1.1 (c3084ef, 2021-09-22)"
   inkscape:export-filename="/Users/bensthoughts/Programming/Web/shareable-love-forms/images/favicon/favicon.png"
   inkscape:export-xdpi="96"
   inkscape:export-ydpi="96"
   xmlns:inkscape="http://www.inkscape.org/namespaces/inkscape"
   xmlns:sodipodi="http://sodipodi.sourceforge.net/DTD/sodipodi-0.dtd"
   xmlns="http://www.w3.org/2000/svg"
   xmlns:svg="http://www.w3.org/2000/svg">
  <defs
     id="defs870" />
  <sodipodi:namedview
     id="namedview868"
     pagecolor="#ffffff"
     bordercolor="#666666"
     borderopacity="1.0"
     inkscape:pageshadow="2"
     inkscape:pageopacity="0"
     inkscape:pagecheckerboard="true"
     showgrid="false"
     inkscape:zoom="12.555828"
     inkscape:cx="14.057217"
     inkscape:cy="12.782909"
     inkscape:window-width="1440"
     inkscape:window-height="785"
     inkscape:window-x="0"
     inkscape:window-y="25"
     inkscape:window-maximized="0"
     inkscape:current-layer="svg866" />
  <path
     fill-rule="evenodd"
     d="m 2.6187665,5.5605527 a 7.8104391,7.8104391 0 0 1 11.0439615,0 l 2.288459,2.2865058 2.288459,-2.2865058 A 7.8104391,7.8104391 0 1 1 29.283608,16.604512 L 15.951187,29.938883 2.6187665,16.604512 a 7.8104391,7.8104391 0 0 1 0,-11.0439593 z"
     clip-rule="evenodd"
     id="path864"
     style="fill:#e001f2;fill-opacity:1;stroke-width:1.95261" />
  <path
     fill-rule="evenodd"
     d="m 6.4517874,9.2681342 a 5.573152,5.573152 0 0 1 7.8804356,0 l 1.632933,1.6315358 1.632936,-1.6315358 a 5.573152,5.573152 0 1 1 7.880438,7.8804308 l -9.513374,9.514764 -9.5133686,-9.514764 a 5.573152,5.573152 0 0 1 0,-7.8804308 z"
     clip-rule="evenodd"
     id="path864-5"
     style="fill:#000000;stroke-width:1.39329" />
</svg>
