<?xml version="1.0" encoding="UTF-8" standalone="no"?>
<!-- Created with Inkscape (http://www.inkscape.org/) -->

<svg
   width="453.83759"
   height="96.456642"
   viewBox="0 0 120.07786 25.52082"
   version="1.1"
   id="svg5"
   xmlns="http://www.w3.org/2000/svg"
   xmlns:svg="http://www.w3.org/2000/svg">
  <defs
     id="defs2">
    <rect
       x="44.090694"
       y="35.389481"
       width="702.0415"
       height="574.73816"
       id="rect3597" />
  </defs>
  <g
     id="layer1"
     transform="translate(-4.140731,-6.579388)">
    <g
       aria-label="Sharable"
       transform="matrix(0.39673934,0,0,0.39673934,-13.591383,-10.864706)"
       id="text3595"
       style="font-size:85.3333px;line-height:1.25;font-family:Milkshake;-inkscape-font-specification:Milkshake;white-space:pre;shape-inside:url(#rect3597);fill:none;stroke:#2b1100;stroke-width:1.69178">
      <path
         d="m 86.927159,49.849206 q -2.218666,0 -4.095998,0.853333 -1.877333,0.768 -3.242665,2.133333 -1.365333,1.279999 -2.133333,3.071999 -0.768,1.706665 -0.768,3.583998 0,2.645332 0.938667,5.205331 0.938666,2.559999 2.303999,5.034665 1.365333,2.474665 2.986665,4.949331 1.621333,2.474666 2.986666,4.949331 1.365332,2.474666 2.303999,4.949332 0.938666,2.474665 0.938666,5.034664 0,3.839999 -1.791999,7.082664 -1.792,3.242665 -4.778665,5.631993 -2.901332,2.38934 -6.655997,3.75467 -3.669332,1.36533 -7.50933,1.36533 -5.461331,0 -9.727996,-1.45066 -4.266665,-1.536 -7.167997,-3.84 -2.901332,-2.304001 -4.437332,-5.12 -1.535999,-2.815999 -1.535999,-5.546664 0,-2.645333 1.962666,-5.034665 1.962666,-2.474666 4.693331,-4.266665 2.815999,-1.791999 5.802664,-2.815999 2.986666,-1.109332 5.034665,-1.109332 1.450666,0 1.450666,1.450666 0,0.597333 -0.426667,1.023999 -0.426666,0.341333 -1.365332,1.024 -1.024,0.853333 -2.047999,1.791999 -1.024,0.853333 -1.877333,1.962666 -0.768,1.109333 -1.28,2.559999 -0.511999,1.365333 -0.511999,3.242665 0,1.706666 0.682666,3.498665 0.768,1.706666 2.047999,3.157332 1.365333,1.450666 3.242666,2.389334 1.877332,0.93866 4.181331,0.93866 4.863998,0 7.850664,-2.815994 2.986665,-2.815999 2.986665,-7.679997 0,-3.157332 -1.962666,-6.570664 -1.877332,-3.413332 -4.181331,-6.99733 -2.218666,-3.669332 -4.181332,-7.50933 -1.877333,-3.925332 -1.877333,-8.02133 0,-4.010665 2.048,-7.082664 2.047999,-3.157332 5.205331,-5.290664 3.242665,-2.218666 7.167997,-3.327999 4.010665,-1.194666 7.850663,-1.194666 2.389332,0 4.522665,0.426666 2.133332,0.426667 3.754665,1.28 1.621333,0.853333 2.559999,2.218666 1.023999,1.279999 1.023999,3.071998 0,2.303999 -1.450666,4.522665 -1.450666,2.218666 -3.413332,4.010665 -1.962665,1.791999 -4.010664,2.901332 -2.048,1.109333 -3.157333,1.109333 -0.597333,0 -1.023999,-0.426666 -0.426667,-0.426667 -0.426667,-0.853333 0,-0.426667 0.170667,-0.768 0.256,-0.426667 0.938666,-1.28 1.194666,-1.450666 2.389333,-3.498665 1.194666,-2.133332 1.194666,-4.181331 0,-1.706666 -1.194666,-2.559999 -1.109333,-0.938667 -2.986666,-0.938667 z"
         style="font-size:85.3333px;line-height:1.25;font-family:Milkshake;-inkscape-font-specification:Milkshake;white-space:pre;shape-inside:url(#rect3597);fill:none;stroke:#2b1100;stroke-width:1.69178"
         id="path35355" />
      <path
         d="m 137.01768,104.97452 c 0.79645,0.79644 1.70667,1.39377 2.73067,1.792 1.08089,0.45511 2.19022,0.68266 3.328,0.68266 1.64977,0 3.18577,-0.36978 4.60799,-1.10933 1.42223,-0.73955 2.70223,-1.56444 3.84,-2.47467 1.30845,-1.024 2.53156,-2.24711 3.66934,-3.66933 0.28444,2.38933 1.25155,4.20978 2.90133,5.46133 1.64977,1.19467 3.66933,1.792 6.05866,1.792 2.10489,0 4.03911,-0.54044 5.80267,-1.62133 1.82044,-1.08089 3.38488,-2.27555 6.95466,-6.613332 3.17155,-4.337775 4.02476,-5.532441 5.50387,-8.149329 1.47911,-2.673777 3.04355,-6.087109 4.69333,-10.239996 0.96711,0.113778 1.82045,0.256 2.56,0.426667 0.62578,0.170667 1.19467,0.369778 1.70666,0.597333 0.56889,0.227555 0.85334,0.568889 0.85334,1.024 0,0.682666 -0.28445,1.564443 -0.85334,2.645332 -0.56889,1.023999 -1.19466,2.218665 -1.87733,3.583998 -0.62577,1.365333 -1.22311,2.872888 -1.792,4.522665 -0.56889,1.649777 -0.85333,3.413332 -0.85333,5.290665 0,1.194667 0.256,2.303997 0.768,3.327997 0.512,1.024 1.25156,1.93422 2.21867,2.73067 0.96711,0.73955 2.10488,1.33689 3.41333,1.792 1.30844,0.45511 2.78755,0.68266 4.43733,0.68266 2.10489,0 4.03911,-0.54044 5.80266,-1.62133 1.82045,-1.08089 3.38489,-2.27555 4.69333,-3.584 1.536,-1.536 2.92978,-3.299553 4.18134,-5.290663 0.11377,-0.284445 0.22755,-0.540445 0.34133,-0.768 0.1138,-0.227555 0.1991,-0.426666 0.256,-0.597333 0.11377,-0.227555 0.17067,-0.455111 0.17067,-0.682666 0,-0.455111 -0.19911,-0.853334 -0.59734,-1.194667 -0.34133,-0.341333 -0.73955,-0.511999 -1.19466,-0.511999 -0.28445,0 -0.54045,0.08533 -0.768,0.256 -0.22756,0.113777 -0.39823,0.227555 -0.512,0.341333 -0.22758,0.227555 -0.36977,0.426666 -0.42667,0.597333 -0.85333,1.422221 -1.792,2.645332 -2.816,3.669332 -0.85333,0.967111 -1.84889,1.820444 -2.98666,2.56 -1.08089,0.73955 -2.19023,1.10933 -3.328,1.10933 -0.85333,0 -1.536,-0.256 -2.048,-0.768 -0.512,-0.512 -0.768,-1.251555 -0.768,-2.218664 0,-1.706666 0.31289,-3.413332 0.93867,-5.119998 0.68266,-1.763555 1.42221,-3.441776 2.21866,-5.034664 0.79645,-1.592889 1.50756,-3.043555 2.13333,-4.351999 0.68267,-1.365333 1.024,-2.531554 1.024,-3.498665 0,-1.137777 -0.34133,-2.104888 -1.024,-2.901332 -0.62577,-0.796444 -1.45066,-1.194666 -2.47466,-1.194666 -0.512,0 -0.99556,0.05689 -1.45067,0.170666 -0.45511,0.113778 -0.93866,0.256 -1.45066,0.426667 -0.512,0.113778 -1.10933,0.227556 -1.792,0.341333 -0.62578,0.113777 -1.42223,0.170667 -2.38934,0.170667 -1.024,0 -1.87733,-0.142222 -2.56,-0.426667 -0.68266,-0.284444 -1.02399,-0.739555 -1.02399,-1.365333 0,-0.682666 0.17067,-1.393777 0.512,-2.133332 0.39822,-0.739555 0.59733,-1.678222 0.59733,-2.815999 0,-0.398222 -0.17067,-0.853333 -0.512,-1.365333 -0.34133,-0.568889 -0.768,-1.052444 -1.28,-1.450666 -0.512,-0.455111 -1.08089,-0.824888 -1.70667,-1.109332 -0.62577,-0.341333 -1.22311,-0.512 -1.792,-0.512 -0.512,0 -1.05244,0.170667 -1.62133,0.512 -0.56889,0.341333 -1.10933,0.796443 -1.62133,1.365332 -0.512,0.568889 -0.93867,1.251555 -1.28,2.047999 -0.28445,0.739555 -0.42667,1.536 -0.42667,2.389333 0,1.080888 0.14222,2.019554 0.42667,2.815999 0.28445,0.796444 0.59734,1.450666 0.93867,1.962665 0.39822,0.625778 0.88177,1.137778 1.45066,1.536 -1.25155,4.039109 -2.61689,7.310219 -4.096,9.813329 -1.42222,2.446221 -2.53155,4.238221 -3.67161,5.875579 -1.74352,2.455962 -1.44826,2.145751 -2.47226,3.169751 -0.85333,0.967111 -1.84889,1.820444 -2.98666,2.56 -1.08089,0.73955 -2.19022,1.10933 -3.328,1.10933 -0.73955,0 -1.33689,-0.22755 -1.792,-0.68266 -0.39822,-0.45511 -0.59733,-1.024 -0.59733,-1.706671 0,-1.422221 0.256,-3.043554 0.768,-4.863998 0.512,-1.877333 1.08089,-3.669332 1.70666,-5.375998 0.62578,-1.763555 1.19467,-3.356443 1.70667,-4.778664 0.512,-1.422222 0.768,-2.446222 0.768,-3.071999 0,-0.739555 -0.19911,-1.365333 -0.59733,-1.877333 -0.39823,-0.511999 -0.91023,-0.910221 -1.536,-1.194666 -0.56889,-0.341333 -1.22312,-0.568889 -1.96267,-0.682666 -0.68267,-0.17067 -1.33689,-0.256 -1.96267,-0.256 -0.51199,-0.682667 -1.19466,-1.336889 -2.04799,-1.962666 -0.73956,-0.512 -1.70667,-0.967111 -2.90134,-1.365333 -1.19467,-0.455111 -2.64533,-0.682666 -4.35199,-0.682666 -2.33245,0 -4.66489,0.739555 -6.99733,2.218666 -2.33245,1.47911 -4.43734,3.441776 -6.31467,5.887997 -1.87733,2.389333 -3.41333,5.091554 -4.608,8.106664 -0.56889,1.507554 -0.67783,3.273051 -2.38928,6.58133 -1.96262,3.004444 -2.95818,3.857777 -4.09596,4.597333 -1.08089,0.73955 -2.19022,1.10933 -3.328,1.10933 -0.85333,0 -1.536,-0.28444 -2.048,-0.85333 -0.45511,-0.62578 -0.68266,-1.422223 -0.68266,-2.389334 0,-1.649777 0.28444,-3.327999 0.85333,-5.034664 0.56889,-1.763555 1.19466,-3.470221 1.87733,-5.119998 0.68267,-1.706666 1.30845,-3.327999 1.87734,-4.863998 0.56889,-1.592889 0.85333,-3.043555 0.85333,-4.351998 0,-0.739555 -0.17067,-1.450666 -0.512,-2.133333 -0.34133,-0.682667 -0.768,-1.308444 -1.28,-1.877332 -0.512,-0.568889 -1.10933,-1.024 -1.792,-1.365333 -0.62578,-0.341333 -1.25156,-0.512 -1.87733,-0.512 -0.91022,0 -1.792,0.113778 -2.64533,0.341333 -0.79645,0.170667 -1.50756,0.398222 -2.13334,0.682667 -0.62577,0.227555 -1.16622,0.455111 -1.62133,0.682666 -0.39825,0.227557 -0.62577,0.369776 -0.68267,0.426666 0.17067,-0.170666 0.85333,-0.995554 2.048,-2.474665 1.19467,-1.535999 2.47467,-3.356443 3.84,-5.461331 1.42222,-2.104888 2.70222,-4.295109 3.84,-6.570664 1.13778,-2.332443 1.70667,-4.380443 1.70667,-6.143998 0,-0.739555 -0.22756,-1.535999 -0.68267,-2.389332 -0.39822,-0.910222 -0.96711,-1.735111 -1.70667,-2.474666 -0.73955,-0.796444 -1.56444,-1.422221 -2.47466,-1.877332 -0.91022,-0.512 -1.84889,-0.768 -2.816,-0.768 -2.67378,0 -5.20533,1.052444 -7.59466,3.157332 -2.38933,2.047999 -4.608,4.75022 -6.656,8.106663 -2.048,3.299555 -3.89689,7.025775 -5.54667,11.178662 -1.649774,4.152887 -3.071994,8.305775 -4.26666,12.458662 -1.194666,4.095998 -2.104888,7.992885 -2.730666,11.690662 -0.625777,3.640887 -0.938666,6.655995 -0.938666,9.045325 0,0.79645 0.284444,1.50756 0.853333,2.13334 0.512,0.56889 1.194666,1.05244 2.047999,1.45066 0.853333,0.34133 1.763555,0.59733 2.730666,0.768 0.967111,0.1707 1.877334,0.256 2.730664,0.256 0.62578,0 1.024,-0.17067 1.19467,-0.512 0.22755,-0.28444 0.34133,-0.68266 0.34133,-1.19466 0,-3.86845 0.36978,-7.367112 1.10933,-10.495999 0.79645,-3.185777 1.792,-5.887998 2.98667,-8.106664 1.25155,-2.275554 2.64533,-4.010664 4.18133,-5.205331 1.536,-1.251555 3.04356,-1.877332 4.52267,-1.877332 1.25155,0 1.87733,0.824888 1.87733,2.474665 0,0.796445 -0.22756,1.763556 -0.68267,2.901333 -0.45511,1.137777 -0.96711,2.389332 -1.536,3.754665 -0.56889,1.365333 -1.08089,2.815999 -1.536,4.351998 -0.45511,1.479111 -0.68266,2.986666 -0.68266,4.522665 0,2.78755 0.99555,5.06311 2.98666,6.82666 1.99111,1.70667 4.608,2.56 7.85067,2.56 2.10489,0 4.03911,-0.54044 5.80266,-1.62133 1.82044,-1.08089 3.52619,-3.35444 5.2371,-3.7143 1.90527,0.0835 1.61792,2.06452 2.35747,2.86097 z M 123.87645,54.627871 c 0,-1.137777 -0.54045,-1.706666 -1.62134,-1.706666 -0.79644,0 -1.76355,0.682666 -2.90133,2.047999 -1.08089,1.308444 -2.27555,3.157332 -3.584,5.546665 -1.25155,2.332443 -2.58844,5.119998 -4.01066,8.362663 -1.36533,3.242665 -2.73067,6.769775 -4.096,10.581329 0.96711,-0.796444 2.04799,-1.848888 3.24266,-3.157332 1.19467,-1.308444 2.38933,-2.730666 3.584,-4.266665 1.19467,-1.535999 2.36089,-3.157332 3.49867,-4.863998 1.13777,-1.706666 2.13333,-3.327999 2.98666,-4.863998 0.85333,-1.592888 1.536,-3.043554 2.048,-4.351998 0.56889,-1.365333 0.85334,-2.474666 0.85334,-3.327999 z"
         style="font-size:85.3333px;line-height:1.25;font-family:Milkshake;-inkscape-font-specification:Milkshake;white-space:pre;shape-inside:url(#rect3597);fill:none;stroke:#2b1100;stroke-width:1.69178"
         id="path35357" />
      <path
         d="m 159.03367,81.849193 c 0,-1.251555 -0.31289,-2.161777 -0.93866,-2.730665 -0.56889,-0.625778 -1.28001,-0.938667 -2.13334,-0.938667 -1.25155,0 -2.53155,0.654222 -3.83999,1.962666 -1.30845,1.308444 -2.50311,2.929777 -3.584,4.863998 -1.024,1.877333 -1.87733,3.925332 -2.56,6.143997 -0.68267,2.218666 -1.024,4.209776 -1.024,5.973331 0,2.559998 0.82489,3.839997 2.47466,3.839997 1.024,0 2.19022,-0.68267 3.49867,-2.047997 1.36533,-1.365333 2.64533,-3.043555 3.84,-5.034665 1.19467,-1.99111 2.19022,-4.067554 2.98666,-6.229331 0.85333,-2.218665 1.28,-4.152887 1.28,-5.802664 z"
         style="font-size:85.3333px;line-height:1.25;font-family:Milkshake;-inkscape-font-specification:Milkshake;white-space:pre;shape-inside:url(#rect3597);fill:none;stroke:#2b1100;stroke-width:1.69178"
         id="path35359" />
      <path
         d="m 252.90015,96.953187 q -1.87733,2.986665 -4.18133,5.290663 -1.96267,1.96267 -4.69333,3.584 -2.64533,1.62133 -5.80267,1.62133 -3.58399,0 -6.05866,-1.792 -2.47467,-1.87733 -2.90133,-5.46133 -1.70667,2.13333 -3.66933,3.66933 -1.70667,1.36534 -3.84,2.47467 -2.13333,1.10933 -4.608,1.10933 -1.70667,0 -3.328,-0.68266 -1.536,-0.59734 -2.73066,-1.792 -1.10934,-1.19467 -1.792,-2.816 -0.68267,-1.62133 -0.68267,-3.584001 0,-4.607998 1.70667,-9.130662 1.792,-4.522665 4.60799,-8.106664 2.816,-3.669332 6.31467,-5.887997 3.49866,-2.218666 6.99733,-2.218666 2.56,0 4.352,0.682666 1.792,0.597333 2.90133,1.365333 1.28,0.938666 2.048,1.962666 0.93866,0 1.96266,0.256 1.10934,0.170666 1.96267,0.682666 0.93867,0.426667 1.536,1.194666 0.59733,0.768 0.59733,1.877333 0,0.938666 -0.768,3.071999 -0.768,2.133332 -1.70666,4.778664 -0.93867,2.559999 -1.70667,5.375998 -0.768,2.730666 -0.768,4.863998 0,1.024001 0.59733,1.706671 0.68267,0.68266 1.792,0.68266 1.70667,0 3.328,-1.10933 1.70667,-1.109334 2.98667,-2.56 1.536,-1.536 2.816,-3.669332 0.0853,-0.256 0.42666,-0.597333 0.17067,-0.170667 0.512,-0.341333 0.34134,-0.256 0.768,-0.256 0.68267,0 1.19467,0.511999 0.59733,0.512 0.59733,1.194667 0,0.341333 -0.17067,0.682666 -0.0853,0.256 -0.256,0.597333 -0.17066,0.341333 -0.34133,0.768 z M 233.10283,81.849193 q 0,-1.877333 -0.93867,-2.730665 -0.85333,-0.938667 -2.13333,-0.938667 -1.87733,0 -3.84,1.962666 -1.96267,1.962666 -3.584,4.863998 -1.536,2.815999 -2.56,6.143997 -1.024,3.327999 -1.024,5.973331 0,3.839997 2.47467,3.839997 1.536,0 3.49866,-2.047997 2.048,-2.048 3.84,-5.034665 1.792,-2.986665 2.98667,-6.229331 1.28,-3.327998 1.28,-5.802664 z"
         style="font-size:85.3333px;line-height:1.25;font-family:Milkshake;-inkscape-font-specification:Milkshake;white-space:pre;shape-inside:url(#rect3597);fill:none;stroke:#2b1100;stroke-width:1.69178"
         id="path35363" />
      <path
         d="m 290.87333,96.953187 q -1.45067,2.133332 -3.66934,3.669333 -1.87733,1.45066 -4.69333,2.56 -2.73066,1.10933 -6.48533,1.10933 -0.68267,0 -1.45066,0 -0.68267,0 -1.45067,-0.17067 -4.352,3.328 -10.24,3.328 -2.21866,0 -4.52266,-0.93866 -2.304,-1.024 -4.26667,-2.73067 -1.96266,-1.792 -3.24266,-4.095998 -1.19467,-2.389332 -1.19467,-5.119998 0,-4.949331 0.85334,-10.410662 0.85333,-5.461331 2.38933,-10.751995 1.536,-5.290665 3.66933,-9.983996 2.21867,-4.778665 4.864,-8.362663 2.64533,-3.583999 5.63199,-5.717331 3.072,-2.133333 6.4,-2.133333 1.36534,0 2.73067,0.768 1.45066,0.682666 2.47466,1.877332 1.10934,1.109333 1.792,2.474666 0.68267,1.279999 0.68267,2.389332 0,1.792 -0.93867,4.010665 -0.85333,2.133333 -2.21866,4.437332 -1.28,2.218666 -2.90134,4.437331 -1.62133,2.133333 -2.98666,3.839999 -1.36533,1.706666 -2.304,2.815999 -0.93867,1.023999 -1.024,1.109332 0.0853,-0.08533 0.68267,-0.426666 0.59733,-0.341333 1.36533,-0.682666 0.85333,-0.426667 1.87733,-0.682667 1.10934,-0.341333 2.21867,-0.341333 1.70666,0 3.24266,0.853333 1.536,0.768 2.64534,2.133332 1.19466,1.28 1.87733,2.901333 0.68266,1.621332 0.68266,3.242665 0,4.351998 -1.53599,9.130663 -1.536,4.778664 -4.608,8.618664 0.256,0.0853 0.85333,0.0853 2.21867,0 4.01067,-0.853331 1.79199,-0.938666 3.15733,-2.047999 1.536,-1.28 2.90133,-2.901332 0.0853,-0.256 0.42667,-0.597333 0.17066,-0.170667 0.512,-0.341333 0.34133,-0.256 0.768,-0.256 0.68266,0 1.19466,0.511999 0.59733,0.512 0.59733,1.194667 0,0.341333 -0.17066,0.682666 -0.0853,0.256 -0.256,0.597333 -0.17067,0.341333 -0.34133,0.768 z m -31.65866,-0.256 q 0,2.645332 0.93867,4.437333 1.024,1.792 2.73066,1.792 1.36534,0 2.816,-1.19467 -0.68266,-0.68266 -0.68266,-1.45066 0,-0.682671 0.42666,-1.450671 0.512,-0.767999 1.19467,-1.365332 0.68266,-0.597334 1.36533,-0.938667 0.768,-0.426666 1.28,-0.426666 h 0.256 q 1.45067,-2.986666 2.304,-6.399998 0.85333,-3.498665 0.85333,-6.48533 0,-2.474666 -0.59733,-3.839999 -0.59733,-1.365332 -2.73067,-1.365332 -1.10933,0 -2.90133,1.194666 -1.70666,1.109333 -3.328,3.413332 -1.62133,2.303999 -2.816,5.802664 -1.10933,3.498665 -1.10933,8.27733 z m 16.89599,-42.069316 q 0,-1.706666 -1.62133,-1.706666 -1.19466,0 -2.816,2.133333 -1.62133,2.047999 -3.41333,5.461331 -1.70666,3.413332 -3.41333,7.850663 -1.62133,4.437331 -2.816,9.130663 2.13333,-2.047999 4.608,-5.119998 2.47466,-3.157332 4.608,-6.399997 2.13333,-3.327999 3.49866,-6.314664 1.36533,-3.071999 1.36533,-5.034665 z"
         style="font-size:85.3333px;line-height:1.25;font-family:Milkshake;-inkscape-font-specification:Milkshake;white-space:pre;shape-inside:url(#rect3597);fill:none;stroke:#2b1100;stroke-width:1.69178"
         id="path35365" />
      <path
         d="m 315.53463,54.115871 q 0,-1.194666 -1.024,-1.194666 -1.19467,0 -3.15733,2.645332 -1.87734,2.645333 -4.01067,6.911997 -2.048,4.266665 -4.096,9.55733 -2.048,5.290664 -3.328,10.666662 1.45067,-1.194666 3.15734,-3.413332 1.792,-2.218666 3.49866,-4.949331 1.70667,-2.815999 3.328,-5.802664 1.62133,-2.986666 2.816,-5.717331 1.28,-2.815999 2.048,-5.119998 0.768,-2.303999 0.768,-3.583999 z M 300.6013,107.44918 q -2.56,0 -4.94933,-0.85333 -2.304,-0.85333 -4.096,-2.47467 -1.792,-1.70666 -2.90133,-4.09599 -1.024,-2.389337 -1.024,-5.376002 0,-4.266665 0.93867,-9.471996 1.024,-5.205332 2.81599,-10.410663 1.792,-5.290664 4.096,-10.239995 2.38934,-4.949332 5.20533,-8.78933 2.816,-3.925332 5.80267,-6.229331 3.072,-2.303999 6.144,-2.303999 1.45066,0 2.73066,0.682667 1.28,0.682666 2.21867,1.706665 1.024,1.024 1.62133,2.304 0.59733,1.194666 0.59733,2.303999 0,1.791999 -1.024,4.607998 -0.93866,2.730665 -2.56,5.97333 -1.62133,3.157333 -3.83999,6.570664 -2.13334,3.413332 -4.52267,6.655998 -2.304,3.157332 -4.69333,5.97333 -2.38933,2.730666 -4.52267,4.522665 -0.17066,1.024 -0.34133,2.133333 -0.17067,0.938666 -0.256,2.133332 -0.0853,1.109333 -0.0853,2.218666 0,2.986665 1.36533,4.863998 1.45067,1.877331 4.096,1.877331 1.70667,0 3.328,-1.10933 1.70666,-1.109334 2.98666,-2.56 1.536,-1.536 2.816,-3.669332 0.0853,-0.256 0.42667,-0.597333 0.17067,-0.170667 0.512,-0.341333 0.34133,-0.256 0.768,-0.256 0.68266,0 1.19466,0.511999 0.59734,0.512 0.59734,1.194667 0,0.341333 -0.17067,0.682666 -0.0853,0.256 -0.256,0.597333 -0.17067,0.341333 -0.34133,0.768 -1.87733,2.986665 -4.18133,5.290663 -1.96267,1.96267 -4.69334,3.584 -2.64533,1.62133 -5.80266,1.62133 z"
         style="font-size:85.3333px;line-height:1.25;font-family:Milkshake;-inkscape-font-specification:Milkshake;white-space:pre;shape-inside:url(#rect3597);fill:none;stroke:#2b1100;stroke-width:1.69178"
         id="path35367" />
      <path
         d="m 322.78791,90.809189 q 2.304,0 4.352,-1.279999 2.048,-1.28 3.49866,-3.071999 1.536,-1.877332 2.38933,-3.839998 0.85334,-1.962666 0.85334,-3.327999 0,-1.706666 -1.536,-1.706666 -1.792,0 -3.49867,1.450666 -1.70666,1.450666 -3.072,3.498665 -1.28,2.048 -2.13333,4.351999 -0.85333,2.303999 -0.85333,3.925331 z m 22.95466,6.143998 q -1.87734,2.986665 -4.69334,5.290663 -2.38933,1.96267 -5.97333,3.584 -3.49866,1.62133 -8.36266,1.62133 -3.24267,0 -5.97333,-0.93866 -2.73067,-0.93867 -4.69333,-2.56 -1.96267,-1.70667 -3.072,-4.010668 -1.10933,-2.303999 -1.10933,-5.034664 0,-4.863998 1.792,-8.874663 1.79199,-4.010665 4.52266,-6.826664 2.73067,-2.901332 5.888,-4.437332 3.24266,-1.535999 6.05866,-1.535999 1.96267,0 3.66933,0.768 1.70667,0.767999 2.98667,2.047999 1.28,1.194666 1.96267,2.815999 0.76799,1.621332 0.76799,3.327998 0,1.536 -0.68266,3.754665 -0.68267,2.133333 -2.304,4.095999 -1.536,1.962665 -4.26667,3.413332 -2.64533,1.365332 -6.65599,1.365332 -0.93867,0 -1.96267,-0.256 -0.59733,-0.08533 -1.28,-0.256 0,3.839999 2.21867,5.887996 2.21866,2.048 5.29066,2.048 2.98667,0 5.46133,-1.19466 2.47467,-1.280004 4.18133,-2.730671 2.048,-1.706665 3.49867,-3.925331 0.0853,-0.256 0.42667,-0.597333 0.17066,-0.170667 0.512,-0.341333 0.34133,-0.256 0.768,-0.256 0.68266,0 1.19466,0.511999 0.59734,0.512 0.59734,1.194667 0,0.341333 -0.17067,0.682666 -0.0853,0.256 -0.256,0.597333 -0.17067,0.341333 -0.34133,0.768 z"
         style="font-size:85.3333px;line-height:1.25;font-family:Milkshake;-inkscape-font-specification:Milkshake;white-space:pre;shape-inside:url(#rect3597);fill:none;stroke:#2b1100;stroke-width:1.69178"
         id="path35369" />
    </g>
  </g>
</svg>
