<?xml version="1.0" encoding="UTF-8"?>
<svg enable-background="new 0 0 864 864" version="1.1" viewBox="0 0 828 407.49" xml:space="preserve" xmlns="http://www.w3.org/2000/svg" xmlns:x="adobe:ns:meta/">

<g transform="translate(-18 -228.26)" fill="none" stroke="#000">
	<path d="m838.68 536.78c-1.9212-0.885-3.8427-1.77-5.7639-2.654-2.1036-0.8422-4.1832-1.749-6.3115-2.5265-11.358-4.1489-23.285-6.55-35.266-7.9796-6.6415-0.6263-8.6281-0.9153-15.323-1.1529-10.5-0.3741-21.019 0.1171-31.458 1.2802-16.006 1.9827-31.913 4.7422-47.56 8.6984-15.082 3.8732-30.017 8.2954-44.6 13.782-13.031 4.8032-25.992 9.7902-38.955 14.772-10.398 3.9728-20.783 8.0471-31.485 11.145-6.551 1.7183-13.25 3.4001-20.082 2.8066-3.6923-0.5294-7.2684-1.3912-10.128-3.9496-3.4362-3.5192-5.058-7.4872-6.1027-12.273-1.321-7.2487-1.4862-14.597-0.4951-21.912 0.7738-5.7615 1.7924-11.484 3.0668-17.15 5.966-1.7508 11.656-4.3027 17.179-7.1902 7.5268-4.0027 14.11-9.372 20.177-15.304 5.7855-5.8116 10.126-12.716 13.71-20.037 2.3328-5.2581 4.2693-10.773 4.8936-16.524 0.118-1.0865 0.1376-2.1814 0.207-3.2718-7e-3 -5.813-1.6356-11.485-5.5496-15.903-0.7526-0.8504-1.64-1.5703-2.46-2.3548-5.3024-4.0397-11.742-5.4297-18.244-3.8313-1.3111 0.323-2.5569 0.8682-3.8358 1.3029-7.4852 3.316-13.286 9.0916-18.805 14.967-6.1544 6.6475-11.058 14.24-15.413 22.145-4.361 8.2652-7.4551 17.08-10.197 25.988-2.0708 0.1007-4.1481 0.0546-6.2266-0.2292-3.6027-0.5288-7.1522-1.3829-10.368-3.1561-3.0397-1.7346-5.852-3.7935-8.637-5.9086-4.1406-2.9251-8.2952-5.6496-13.602-5.5898-1.3338 0.2272-2.7173 0.2519-4.0013 0.6805-5.0796 1.6815-8.316 5.8372-10.358 10.557-1.7395 4.5225-2.9744 9.2008-4.0865 13.914-1.6293 6.5858-3.3077 13.162-5.2939 19.652-2.5919 8.4925-5.4267 16.916-8.7993 25.134-3.403 8.224-6.9802 16.399-11.353 24.162-2.6393 4.4462-5.3614 9.0126-9.5347 12.206-0.0158 0.01-1.919 1.2424-1.9178 1.3029 2e-3 0.2476 0.8308 0.5092 0.7265 0.8535-0.1902 0.618-1.1931-0.7896-1.2108-0.7896-1.2153-1.6018-1.9562-3.5004-2.6686-5.3597-2.1608-6.4089-3.5954-13.022-4.3539-19.746-0.8909-8.4678-1.3231-16.975-0.8875-25.49 0.3815-8.751 1.0993-17.478 2.2493-26.164 0.96-7.8381 2.0688-15.656 3.0985-23.485 0.737-6.043 1.4745-12.153 0.8005-18.24-0.885-5.4875-2.444-10.533-7.1941-13.988-1.0594-0.7704-2.2905-1.2719-3.4349-1.907-1.1496-0.3121-2.2729-0.7409-3.4474-0.936-4.6714-0.7779-9.2811 0.7063-13.402 2.7781-4.5372 2.5157-8.7888 5.4738-12.92 8.6085-5.2486 3.9955-10.437 8.0696-15.705 12.04-5.1158 3.8184-10.291 7.5697-15.685 10.986-2.1157-6.3204-4.7655-12.54-8.7098-17.95-0.8211-1.1258-1.7484-2.1699-2.6225-3.2546-4.5514-4.9692-10.277-8.6895-16.975-9.9352-1.2513-0.2337-2.5295-0.2867-3.7943-0.4287-6.0638-0.172-11.887 1.5064-16.999 4.758-0.9436 0.6004-1.8226 1.297-2.7335 1.9455-1.1456 0.9266-2.2293 1.9216-3.2522 2.9728-0.585-0.2802-1.1795-0.5363-1.7931-0.7403-4.3361-1.4405-8.5844 2.4218-11.259 5.131-3.8259 4.3939-7.1724 9.1686-10.731 13.776-6.2959 8.2958-12.669 16.532-19.119 24.707-9.1593 11.604-18.425 23.123-27.73 34.609-10.136 12.478-20.27 24.972-31.065 36.892-8.1322 8.6896-16.538 17.278-26.745 23.56-4.2639 2.413-8.5986 4.8034-13.496 5.6144-0.3274-0.0598-0.6745-0.0566-0.9828-0.1769-3.9758-1.6057-6.5721-8.6002-8.0883-12.142-1.4307-4.3927-1.8652-5.3423-2.8388-10.003-1.932-9.243-2.3957-18.722-2.2634-28.143 0.1013-2.9061 0.1455-5.8146 0.3038-8.7183 0.9509-17.386 3.6185-34.636 6.9109-51.717 4.9414-23.682 10.699-47.19 18.096-70.24 2.3942-7.4924 4.8553-14.964 7.3931-22.41 0.4475-0.3131 0.9007-0.6186 1.3466-0.9335 3.1209-2.2036 6.1754-4.4994 9.2628-6.7491 15.492-11.672 30.121-24.482 43.786-38.248 2.6473-2.6663 5.2172-5.4095 7.8258-8.1134 11.725-12.547 22.678-25.87 32.123-40.23 1.6671-2.5343 3.2305-5.136 4.8451-7.7043 6.4621-10.996 12.413-22.524 15.573-34.958 0.5201-2.0461 0.8632-4.1335 1.2953-6.2013 1.2444-8.7599 1.318-18.204-3.1066-26.185-0.8268-1.4913-1.9253-2.8151-2.8873-4.2221-1.2778-1.1909-2.4179-2.5481-3.8327-3.5722-4.4905-3.2497-9.8341-4.5285-15.316-4.2354-4.3156 0.231-6.0669 1.05-10.165 2.3136-12.352 4.9718-20.723 13.699-29.367 23.454-11.02 12.879-19.649 27.493-27.864 42.248-10.315 18.793-18.965 38.414-27.28 58.151-5.5663 13.359-10.64 26.907-15.411 40.562-11.333 7.5939-23.102 14.545-35.334 20.585-2.7359 1.2665-5.4463 2.5885-8.2072 3.7988-11.588 5.0786-23.696 9.0201-36.19 11.114-9.6738 1.351-19.5 2.3421-29.199 0.5755-4.6273-1.0269-9.1862-2.3967-13.186-5.0287-1.3338-0.9179-2.5236-2.0021-3.8299-2.9435 0.0192 0.0172 0.0429 0.0388 0.0536 0.0653l-0.0024 6e-3c-11.45-11.449-27.641 4.7426-16.192 16.192 2.1092 2.0197 4.4572 3.761 6.8377 5.4433 5.0559 3.3221 10.63 5.8376 16.461 7.4536 1.5418 0.4273 3.1116 0.7449 4.6676 1.1179 9.9609 1.9018 20.18 1.8929 30.236 0.7902 2.4271-0.266 4.8395-0.6568 7.2599-0.9794 14.417-2.3456 28.404-6.8027 41.782-12.619 3.0629-1.3323 6.0682-2.7931 9.102-4.1891 4.9281-2.4193 9.7795-4.9896 14.571-7.6667-7.0904 22.632-12.712 45.675-17.562 68.882-3.4975 18.07-6.3046 36.322-7.3331 54.716-0.1785 3.1917-0.2341 6.3889-0.351 9.5825-0.18 10.991 0.3972 22.04 2.5791 32.836 1.2291 6.0834 1.7688 7.2854 3.5918 13.089 3.3687 8.8173 7.8161 17.932 15.948 23.337 1.6203 1.0762 3.4405 1.8175 5.1606 2.726 1.9636 0.5167 3.8824 1.2547 5.8912 1.5493 7.9821 1.1779 15.978-1.3953 23.05-4.8746 1.8506-0.9105 3.6209-1.9762 5.431-2.9649 12.37-7.3475 22.574-17.517 32.352-27.928 11.177-12.305 21.657-25.218 32.134-38.116 7.7273-9.5381 15.411-19.112 23.046-28.724-1.9709 9.1339-3.3682 18.375-4.2866 27.68-0.6469 7.7662-0.7134 15.595 0.2094 23.344 0.5816 4.8835 0.9321 5.9886 1.9518 10.74 2.0166 7.8931 5.1746 15.537 10.223 21.995 0.9036 1.1563 1.9208 2.2188 2.8818 3.3293 4.2095 4.2545 9.2673 7.5897 15.174 8.923 3.9959 0.8998 5.0687 0.6372 9.0971 0.5448 7.5986-0.916 14.462-4.2949 20.368-9.0853 1.2384-1.0039 2.3864-2.1165 3.5797-3.1736 7.8292-7.515 13.315-16.898 18.336-26.408 3.4036-6.8021 6.2993-13.867 8.4045-21.182 1.4163-4.9211 1.5982-6.2988 2.6298-11.314 2.1474-11.435 2.3259-23.075 1.9202-34.662-0.115-2.8116-0.3441-5.6096-0.6598-8.3942 1.1078-0.5953 2.2109-1.1979 3.3067-1.8131 7.3667-4.3381 14.295-9.3572 21.141-14.463 5.3294-4.0108 10.573-8.1327 15.88-12.171 1.1985-0.881 2.4001-1.7615 3.6106-2.6277-0.172 1.7733-0.3904 3.5431-0.6077 5.3056-1.0358 7.8298-2.1375 15.65-3.0991 23.489-1.2273 9.2745-1.9823 18.597-2.3973 27.941-0.492 9.6427-2e-3 19.28 0.9887 28.872 0.8991 8.3809 2.7719 16.588 5.3961 24.586 2.166 5.8611 5.0082 11.772 9.9138 15.861 1.0797 0.8997 2.3007 1.6145 3.4517 2.4223 1.3318 0.5854 2.6095 1.3105 3.9948 1.7581 5.6288 1.8032 11.582 1.0317 16.912-1.3245 1.2556-0.5551 2.4296-1.2784 3.6443-1.9174 8.0107-4.9148 13.297-12.568 18.06-20.45 4.9818-8.7126 9.0284-17.914 12.87-27.173 3.6587-8.8945 6.7299-18.013 9.5434-27.206 2.1076-6.8837 3.8942-13.858 5.6234-20.844 0.2852-1.0961 0.5561-2.1978 0.8284-3.2995 2.0023 1.3879 4.0411 2.7222 6.1497 3.9553 5.6355 3.2408 11.874 4.8907 18.232 5.9545 1.4165 0.2149 2.8333 0.3433 4.2502 0.4322-0.6867 3.7418-1.3121 7.4958-1.8274 11.268-0.9531 8.0698-1.2354 16.264-0.145 24.337 0.2074 1.5339 0.5153 3.0527 0.7724 4.5791 1.5343 7.2496 4.1528 14.331 8.7013 20.259 0.8977 1.1696 1.9267 2.2325 2.8903 3.348 5.2609 5.2802 11.817 8.8165 19.071 10.491 1.4344 0.3337 2.8986 0.5181 4.3474 0.7803 10.044 1.3455 19.935-0.7357 29.615-3.2261 11.534-3.2734 22.715-7.6444 33.905-11.92 12.879-4.9482 25.754-9.9059 38.699-14.676 13.854-5.2142 28.04-9.4177 42.37-13.087 14.7-3.7006 29.638-6.3087 44.674-8.1526 9.3857-1.0369 18.843-1.4725 28.282-1.1116 5.8421 0.2217 7.7087 0.4886 13.514 1.0522 10.255 1.2579 20.479 3.2962 30.188 6.9019 1.6863 0.6273 3.3304 1.3613 4.9951 2.0411 1.5717 0.7332 3.1434 1.4662 4.7147 2.1992 14.692 6.8066 24.317-13.972 9.6254-20.778zm-278.52-52.109c3.3983-6.2432 7.2294-12.242 12.051-17.503 2.8165-3.0245 5.7014-6.0402 9.1011-8.4156-0.4233 2.9093-1.4775 5.7093-2.642 8.4122-2.3716 4.9979-5.2832 9.7023-9.162 13.69-3.7034 3.6868-7.7166 7.0273-12.152 9.7795 0.8634-2.0173 1.7925-4.0079 2.8042-5.9626zm-359.64-121.32c7.9885-18.973 16.287-37.84 26.189-55.91 7.4039-13.326 15.132-26.56 25.026-38.232 5.6612-6.4546 11.727-12.42 19.422-17.372 3.819-1.9241 2.8235-1.4339 3.819-1.9241 1.2857 0.0605 1.4447 1.8668 1.6851 2.8422 0.7469 3.0274 0.5242 6.1601 0.13 9.2176-0.2763 1.4381-0.4857 2.8913-0.8304 4.315-2.5206 10.419-7.6626 20.003-12.989 29.211-3.9949 6.3814-4.7974 7.8701-9.2337 14.097-7.5569 10.606-15.93 20.615-24.826 30.118-2.4553 2.5501-4.8742 5.1356-7.3657 7.6497-7.4615 7.5294-15.263 14.716-23.317 21.608 0.7585-1.8751 1.5125-3.752 2.2904-5.6203zm119.61 127.18c0.6174-2.0854 1.6778-3.9605 3.31-5.4305 1.2572-1.0403 2.6029-2.0128 4.2459-2.3067 2.0269-0.2159 3.6213 0.7354 5.0343 2.1626 3.6561 4.1259 5.8012 9.2491 7.4649 14.457 0.1631 0.5668 0.2881 1.1425 0.4423 1.7114-3.5756 0.7657-7.2092 1.3269-10.876 1.0018-2.1084-0.2812-4.1281-0.7316-5.8459-2.0704-1.4749-1.2446-2.696-2.7239-3.4503-4.5188-0.6059-1.6447-0.8051-3.2858-0.3248-5.0065zm22.773 63.154c-0.7936 3.9738-0.9424 5.1208-2.0373 9.015-1.6893 6.0034-4.0561 11.796-6.8239 17.378-3.7363 7.1395-7.7077 14.279-13.41 20.066-2.8873 2.6857-5.9442 5.3151-9.8311 6.3913-2.6483 0.545-3.8358 0.0421-5.928-1.8118-4.086-4.3568-6.3687-9.2273-7.8529-15.012-0.7762-3.4529-1.0663-4.3682-1.5177-7.9331-0.7989-6.3135-0.7393-12.699-0.2212-19.032 1.0403-10.838 2.8368-21.577 5.5273-32.135 1.4381-5.6203 2.968-11.218 4.6357-16.773 0.885 0.9986 1.8181 1.9768 2.8169 2.9415 4.1208 3.5649 8.991 6.0588 14.3 7.2997 1.0969 0.2562 2.2149 0.408 3.3219 0.6174 6.1906 0.8895 12.365 0.22 18.446-0.9634 0.0119 0.224 0.0414 0.4464 0.0518 0.6705 0.3654 9.7833 0.2734 19.614-1.4772 29.281z"/>
	<path d="m38.03 423.11c0.0088 6e-3 0.0167 0.0131 0.0255 0.0196-0.0245-0.0217-0.0437-0.0334-0.0255-0.0196z"/>
	<path d="m685.72 475.59c5.7463 6.3406 11.908 11.677 19.075 16.38 7.0417 4.6169 14.256 9.0431 22.147 12.078 5.0948 1.903 10.254 3.6209 15.568 4.8115 1.5157 0.3677 3.0496 0.6519 4.5318 1.1292l1e-3 -4e-4c15.569 4.4483 21.86-17.57 6.2909-22.018-1.6813-0.5329-3.6326-0.9291-5.4198-1.3633-4.4137-0.9788-8.6964-2.3997-12.92-3.9965-6.2846-2.4739-12.01-6.082-17.627-9.7795-5.3793-3.5681-10.328-7.6823-14.594-12.524-3.2114-3.7808-5.3834-8.2054-7.1072-12.818-1.0344-2.9322-1.7554-5.964-1.4944-9.0819-0.0107-0.0251-4e-3 -0.0641-0.01-0.0934 0.0723 6e-3 0.1459 7e-3 0.2094 0.0309 2.0309 0.436 3.8495 1.444 5.6262 2.4788 3.0763 1.905 5.8575 4.2374 8.638 6.5403 2.675 2.2289 5.2207 4.6035 7.7914 6.9501 2.2458 2.0821 4.5142 4.1232 6.9954 5.9197 3.559 2.3008 7.7516 3.372 11.965 2.3008 3.2226-0.8181 3.9447-1.7108 6.4446-3.5786 3.3799-3.2059 5.4639-7.3744 7.4542-11.514 1.8917-4.1376 3.6694-8.3257 5.5082-12.488 1.907-4.3321 4.1715-8.483 6.5799-12.553 2.1863-3.6565 4.8087-7.0024 7.6926-10.128 2.4965-2.6404 5.3922-4.819 8.6095-6.4916 2.6047-1.3661 5.4354-1.9857 8.3386-2.2477 2.2708-0.1466 4.4236 0.3958 6.4943 1.2713 2.0255 0.9735 3.7134 2.4238 5.2029 4.0816 1.4233 1.6342 2.2794 3.6277 3.0379 5.632 0.6268 1.8092 0.702 3.6716 0.584 5.5599-0.2513 2.5673-0.936 5.0583-1.7437 7.4979-1.2002 3.3019-2.9168 6.3766-4.6913 9.3961-2.5942 4.3243-5.4269 8.4977-8.3616 12.597-3.8906 5.3503-8.0047 10.535-12.085 15.742-9.9883 12.743 8.0344 26.871 18.023 14.126 4.288-5.4707 8.6078-10.92 12.69-16.548 3.3369-4.6714 6.5613-9.4256 9.5028-14.358 2.5919-4.4497 5.0456-9.0053 6.7073-13.897 1.4247-4.4552 2.5796-9.0106 2.8426-13.701 0.1387-5.0472-0.3283-10.047-2.1597-14.801-1.8883-4.7064-4.2025-9.2327-7.7009-12.971-3.9237-4.0668-8.3346-7.571-13.619-9.7243-5.5259-2.0502-11.244-3.2508-17.174-2.6696-5.8587 0.6805-11.576 2.0599-16.807 4.8878-5.4012 2.9916-10.399 6.5997-14.593 11.172-3.9199 4.3175-7.5313 8.8994-10.507 13.93-2.8574 4.8455-5.5417 9.7898-7.8092 14.944-1.4183 3.2121-2.8131 6.4354-4.2383 9.6447-2.0918-1.9105-4.1921-3.8131-6.3729-5.6232-3.8171-3.158-7.6715-6.3068-11.954-8.8254-4.8622-2.7124-9.9659-4.9615-15.592-5.4143-0.9962-0.0323-1.9922-0.0924-2.9882-0.0924-5.3127 0.1391-10.254 2.0643-14.205 5.6213-0.7468 0.8151-1.5596 1.5761-2.2408 2.4468-3.1409 4.0171-4.5457 8.9924-4.965 14.001-0.173 6.3559 0.7183 12.219 2.9803 18.194 2.7872 7.2051 6.3257 14.08 11.448 19.936zm8.9443-38.362c0.0693 0.1106-0.2009 0.3663-0.4577 0.5905 0.2361-0.8211 1.0217-1.8426 0.4577-0.5905z"/>
</g>
</svg>
